<?xml version="1.0" encoding="UTF-8"?>
<svg id="Layer_2" data-name="Layer 2" xmlns="http://www.w3.org/2000/svg" viewBox="0 0 811.35 385.01">
  <defs>
    <style>
      .cls-1 {
        fill: #fff;
      }
    </style>
  </defs>
  <g id="Logo">
    <g id="logo">
      <g>
        <path class="cls-1" d="m372.38,267.49c1.07-6.08,2.68-14.76,4.83-26.03,2.15-11.27,4.56-24.06,7.25-38.37,2.68-14.3,5.72-29.51,9.12-45.61,3.4-16.1,6.71-31.93,9.93-47.49,3.22-15.56,6.44-30.5,9.66-44.81,3.22-14.3,6.08-26.83,8.59-37.56,1.42-6.08,5.37-11.98,11.81-17.71,6.44-5.72,16.45-8.94,30.05-9.66,26.83-1.43,46.69,3.49,59.57,14.76,12.88,11.27,20.57,26.56,23.08,45.88l42.39,266.17c2.86,13.24,7.33,22.46,13.42,27.64,6.08,5.19,13.41,6.71,22,4.56,6.08-1.43,10.46-3.76,13.15-6.98,2.68-3.22,4.47-6.98,5.37-11.27.89-4.29,1.07-8.76.54-13.42-.54-4.64-1.16-8.76-1.88-12.34l-40.25-244.17c-1.07-8.94-.99-17.35.27-25.22,1.25-7.87,3.76-14.76,7.51-20.66,3.76-5.9,9.03-10.73,15.83-14.49,6.79-3.76,15.38-6.17,25.76-7.24,11.08-1.07,21.64-.89,31.66.54,10.01,1.43,19.05,4.39,27.1,8.85,8.05,4.48,14.84,10.65,20.39,18.51,5.54,7.87,9.57,17.53,12.08,28.98l69.76,323.59h-61.71l-66.01-315.01c-.36-2.86-1.07-6.79-2.15-11.81-1.07-5.01-2.87-9.93-5.37-14.76-2.51-4.83-5.9-9.03-10.2-12.61-4.29-3.57-10.02-5.37-17.17-5.37-10.73-.35-19.86,3.94-27.37,12.88-7.51,8.95-10.38,22.54-8.59,40.78l40.78,245.78c.71,6.8.89,13.42.54,19.86-.36,6.44-1.79,12.34-4.29,17.71-2.51,5.37-6.09,9.93-10.73,13.68-4.65,3.76-10.73,6.35-18.25,7.78-6.8,1.43-13.95,2.15-21.46,2.15-19.68,0-35.69-6.53-48.03-19.59-12.34-13.06-21.73-34.08-28.17-63.05l-40.78-253.83c-.36-2.15-1.07-4.83-2.15-8.05-1.07-3.22-2.51-6.26-4.29-9.12-1.79-2.86-4.12-5.37-6.98-7.51-2.87-2.15-6.26-3.4-10.2-3.76-7.16-1.07-13.42.81-18.78,5.63-5.37,4.83-8.95,11.36-10.73,19.59-2.87,14.67-5.64,29.16-8.32,43.47-2.68,14.31-5.1,27.64-7.25,39.98-2.15,12.34-4.12,23.53-5.9,33.54-1.79,10.02-3.22,18.07-4.29,24.15-2.15,13.6-2.77,26.83-1.88,39.71.89,12.88,2.86,25.22,5.9,37.03,3.04,11.81,6.88,22.99,11.54,33.54,4.64,10.56,9.66,20.31,15.02,29.25,12.16,20.75,26.65,40.07,43.47,57.96h-94.99c-5.01-10.37-9.04-25.93-12.07-46.69-3.04-20.74-2.41-44,1.88-69.76Z"/>
        <path class="cls-1" d="m51.52,6.14v184.6L244.71,6.68l16.64-.54L105.18,155.33c17.53,6.44,32.28,14.22,44.27,23.34,11.98,9.12,22.09,18.7,30.32,28.71,8.22,10.02,15.02,20.12,20.39,30.32,5.37,10.2,10.01,19.77,13.95,28.71,9.3,20.04,20.66,38.91,34.08,56.62,13.42,17.71,29.42,32.83,48.03,45.35l20.39,15.03-116.45.54c-3.22-6.44-5.9-15.38-8.05-26.83-2.15-11.45-4.48-24.23-6.98-38.37-2.51-14.13-5.64-28.89-9.39-44.27-3.76-15.38-8.85-30.14-15.29-44.27-6.44-14.13-14.85-27.1-25.22-38.91-10.38-11.81-23.26-21.11-38.64-27.91l-45.08,43.47v177.09H0V6.14h51.52Z"/>
      </g>
    </g>
  </g>
</svg>