<svg width="427" height="313" viewBox="0 0 427 313" fill="none" xmlns="http://www.w3.org/2000/svg">
<path d="M385.66 192.06C384.65 183.16 381.95 174.44 377.58 166.69C371.89 156.6 362.7 148.21 351.78 144.14C338.94 139.36 324.73 144.27 312.12 138.66C297.97 132.37 292.01 117.37 284.52 104.97C280.92 99.01 276.93 93.27 272.41 87.96C240.15 50.04 186.86 47.18 141.78 57.53C118.16 62.95 96.7099 75.18 81.1299 93.94C55.1999 125.16 47.6299 174.46 65.8799 211.3C82.6499 245.16 123.88 267.84 161.43 259.24C178.4 255.36 195.72 248.21 213.19 253.85C231.3 259.7 248.08 268.32 267.04 271.38C305.24 277.56 355.55 271.73 377.07 234.79C381.86 226.58 384.56 217.39 385.65 207.97C386.26 202.72 386.26 197.36 385.66 192.06Z" fill="#166534"/>
<path d="M232.68 147.7L224.72 171.16C224.2 163.12 223.13 154.87 220.56 149.53C214.4 136.75 198.11 132.77 186.74 141.26L168.83 140.71C154.83 133.48 137.62 138.22 129.32 151.62C122.58 162.5 92.78 244.96 92.78 244.96L129.58 255.28L144.17 197.71C144.17 197.71 148.8 228.78 150.08 232.29L220.81 208.26L234.83 207.3H258.9L264.54 156.28L232.67 147.69L232.68 147.7Z" fill="black"/>
<path d="M183.02 153.68C194.26 153.49 197.97 143.3 199.19 136.79C194.87 136.99 190.53 138.43 186.75 141.26L168.84 140.71C164.78 138.61 160.45 137.53 156.15 137.36C158.45 140.67 168.56 153.92 183.03 153.67L183.02 153.68Z" fill="white"/>
<path d="M170.55 294.19L217.1 311.81L257.29 297.57L213.72 284.85L170.55 294.19Z" fill="#166534" fill-opacity="0.75"/>
<path d="M217.1 312.58C217.01 312.58 216.92 312.56 216.83 312.53L170.28 294.9C169.96 294.78 169.76 294.46 169.79 294.13C169.82 293.79 170.06 293.51 170.39 293.44L213.56 284.1C213.68 284.07 213.81 284.08 213.94 284.11L257.51 296.83C257.83 296.92 258.05 297.21 258.06 297.54C258.06 297.87 257.86 298.17 257.55 298.29L217.36 312.54C217.28 312.57 217.19 312.58 217.1 312.58ZM173.25 294.39L217.11 311L254.8 297.64L213.69 285.64L173.25 294.39Z" fill="black"/>
<path d="M86.9699 100.95C93.8699 89.21 108.85 81.77 122.17 86.4C127.55 88.27 132.39 91.53 137.95 92.94C143.78 94.41 149.42 92 155.2 91.5C163.24 90.81 171.51 92.69 178.3 97.11C178.99 97.56 179.65 98.0399 180.3 98.5399C180.86 98.6999 181.44 98.85 182.04 98.96C183.91 99.31 185.75 99.79 187.63 100.08C194.81 101.17 198.76 104.5 199.2 109.54C199.59 114.05 196.55 118.44 190.64 120.94C188.46 121.86 186.15 122.3 183.78 122.29C183.63 122.83 183.45 123.36 183.23 123.87C181.55 127.83 178.75 131.8 175.59 134.61C173.91 136.11 171.74 136.86 169.93 136.99C167.57 137.16 164.82 136.73 162.49 136.4C160.07 136.05 157.68 135.51 155.34 134.8C153.04 134.1 150.77 133.26 148.4 132.85C140.94 131.55 135.87 135.92 130.03 139.83C121.68 145.44 110.62 146.61 101.28 142.86C85.6 136.56 78.4599 115.5 86.9899 100.96L86.9699 100.95Z" fill="black"/>
<path d="M92.6102 136.39C92.4202 136.39 92.2402 136.32 92.0902 136.19C85.9402 130.51 82.4802 121.87 82.6002 112.49C82.7202 103.02 86.4502 94.37 92.8502 88.76C102.31 80.46 114.6 80.6 130.44 89.21C139.82 94.3 144.96 93.24 145.01 93.23C145.42 93.14 145.83 93.4 145.93 93.81C146.02 94.22 145.77 94.63 145.36 94.73C145.13 94.78 139.67 95.98 129.71 90.57C114.5 82.31 102.78 82.1 93.8602 89.93C87.8002 95.26 84.25 103.49 84.14 112.53C84.03 121.48 87.31 129.7 93.14 135.09C93.45 135.38 93.47 135.86 93.18 136.17C93.03 136.33 92.8202 136.42 92.6202 136.42L92.6102 136.39Z" fill="black"/>
<path d="M129.58 256.06C129.51 256.06 129.44 256.06 129.37 256.03L92.57 245.71C92.36 245.65 92.19 245.51 92.09 245.32C91.99 245.13 91.98 244.91 92.05 244.71C93.27 241.34 121.96 162.05 128.66 151.22C132.78 144.58 139.19 139.78 146.73 137.7C154.21 135.64 162.12 136.44 169.02 139.96L186.49 140.49C192.06 136.43 199.07 135.04 205.77 136.68C212.56 138.34 218.2 142.91 221.24 149.2C223.18 153.22 224.45 159.04 225.19 167.36L231.94 147.46C232.07 147.08 232.47 146.86 232.87 146.97L264.74 155.56C265.11 155.66 265.34 156.01 265.3 156.39L259.65 207.41C259.61 207.8 259.28 208.09 258.89 208.09H234.84L220.95 209.04L150.31 233.04C149.91 233.17 149.49 232.97 149.34 232.58C148.3 229.75 145.24 210.04 143.96 201.61L130.3 255.49C130.25 255.69 130.12 255.86 129.94 255.97C129.82 256.04 129.69 256.07 129.56 256.07L129.58 256.06ZM93.78 244.46L129.03 254.35L143.43 197.55C143.52 197.2 143.85 196.95 144.21 196.97C144.58 196.99 144.88 197.26 144.93 197.62C146.43 207.67 149.4 226.74 150.59 231.33L220.57 207.56C220.63 207.54 220.7 207.53 220.76 207.52L234.78 206.56C234.78 206.56 234.81 206.56 234.83 206.56H258.22L263.72 156.87L233.18 148.64L225.45 171.41C225.33 171.76 224.98 171.97 224.62 171.92C224.26 171.87 223.98 171.57 223.95 171.21C223.3 161.2 221.96 154.22 219.86 149.87C217.02 143.99 211.76 139.72 205.41 138.17C199.07 136.62 192.42 137.97 187.19 141.88C187.05 141.98 186.87 142.04 186.71 142.03L168.8 141.48C168.69 141.48 168.57 141.45 168.47 141.4C154.91 134.4 138 139.07 129.96 152.03C123.68 162.16 96.82 236.03 93.77 244.45L93.78 244.46Z" fill="black"/>
<path d="M411.2 204.98C395.88 202.65 393.61 224.74 393.61 224.74L376.81 223.22L371.44 262.17L404.04 265.86L412.63 207.22C412.81 206.01 412.22 205.14 411.2 204.98Z" fill="white"/>
<path d="M404.05 266.63C404.05 266.63 403.99 266.63 403.96 266.63L371.36 262.94C371.15 262.92 370.97 262.81 370.84 262.65C370.71 262.49 370.66 262.28 370.69 262.07L376.06 223.12C376.12 222.71 376.49 222.43 376.89 222.46L392.95 223.91C393.35 221.12 395.14 211.42 401.28 206.67C404.12 204.47 407.5 203.65 411.32 204.23C412.79 204.45 413.64 205.73 413.4 207.34L404.81 265.98C404.75 266.36 404.43 266.64 404.05 266.64V266.63ZM372.31 261.5L403.4 265.02L411.88 207.11C411.94 206.74 411.97 205.88 411.09 205.74C407.7 205.23 404.72 205.94 402.22 207.88C395.68 212.94 394.39 224.7 394.38 224.82C394.34 225.24 393.96 225.54 393.55 225.51L377.48 224.06L372.31 261.5Z" fill="black"/>
<path d="M336.995 101.162C347.912 98.5854 354.673 87.6467 352.096 76.7297C349.52 65.8128 338.581 59.0516 327.664 61.6283C316.747 64.2049 309.986 75.1436 312.562 86.0606C315.139 96.9775 326.078 103.739 336.995 101.162Z" fill="#166534"/>
<path d="M35.2449 172.451C45.608 168.158 50.5292 156.277 46.2366 145.914C41.9441 135.551 30.0634 130.63 19.7003 134.923C9.33726 139.215 4.41603 151.096 8.70856 161.459C13.0011 171.822 24.8819 176.743 35.2449 172.451Z" fill="#166534"/>
<path d="M404.05 265.86L412.64 207.22C412.82 206.01 412.23 205.14 411.21 204.98C395.89 202.65 393.62 224.74 393.62 224.74H392.93L387.19 263.95L404.06 265.86H404.05Z" fill="black"/>
<path d="M125.78 271.51C125.54 270.25 127 264.6 128.81 258.33C131.9 247.66 125.38 236.59 114.53 234.18L114.45 234.16C104.93 232.04 95.3302 237.39 92.1202 246.61C88.6802 256.51 84.8901 267.32 84.7601 267.45C84.5101 267.68 80.96 267.68 79.63 267.9C76.87 268.35 74.1801 268.91 71.5201 269.8C69.3501 270.53 67.1902 271.54 65.3202 272.88C63.6202 274.09 62.2002 275.61 61.8702 277.74C61.5902 279.5 61.7002 281.58 63.3702 282.64C65.0102 283.68 67.1002 283.13 68.8402 282.38C68.3602 283.15 66.2801 286.59 69.2301 289.41C71.2801 291.37 74.3902 290.27 75.1002 289.82C75.0502 291.53 75.9701 292.99 77.7501 293.42C79.5401 293.85 81.4901 293.12 83.0001 292.19C84.3801 291.34 85.44 290.2 86.42 288.98C86.11 290.29 85.77 293.92 88.95 295.29C91.34 296.32 95.67 294.95 99.88 290.75C101.71 288.92 107.28 284.46 109.15 282.66C109.98 281.86 112.57 279.71 112.57 279.71C112.57 279.71 111.73 282.85 111.48 283.78C111 285.56 111.21 287.37 112.43 288.8C114.32 291 118.85 291.92 123.11 286.8C127.35 281.71 126.1 273.19 125.79 271.52L125.78 271.51Z" fill="white"/>
<path d="M90.6798 296.37C89.9398 296.37 89.2498 296.24 88.6398 295.98C86.4498 295.04 85.5799 293.11 85.4599 291.19C84.8699 291.77 84.1798 292.34 83.3998 292.83C82.2098 293.56 79.88 294.71 77.57 294.15C75.92 293.75 74.7598 292.53 74.4298 290.93C72.9798 291.4 70.5399 291.72 68.6999 289.96C66.9399 288.28 66.47 286.07 67.32 283.71C65.56 284.17 64.1299 284.02 62.9499 283.28C61.3199 282.24 60.68 280.28 61.11 277.61C61.43 275.58 62.6698 273.82 64.8798 272.25C66.6998 270.95 68.8599 269.88 71.2799 269.07C73.6399 268.28 76.1699 267.69 79.5099 267.14C80.1599 267.03 81.2299 266.98 82.2799 266.92C82.9299 266.89 83.7799 266.84 84.2099 266.79C84.6199 265.72 86.1698 261.41 91.3998 246.35C94.7298 236.77 104.72 231.2 114.62 233.41L114.7 233.43C120.14 234.64 124.71 237.95 127.55 242.74C130.4 247.55 131.11 253.16 129.55 258.54C126.58 268.79 126.45 270.92 126.53 271.36C126.73 272.4 128.32 281.71 123.69 287.27C120.93 290.58 118.25 291.29 116.49 291.3C114.67 291.3 112.95 290.57 111.83 289.27C110.53 287.76 110.14 285.73 110.72 283.55L111.18 281.84C110.58 282.35 109.99 282.87 109.67 283.18C108.78 284.03 107.12 285.44 105.35 286.93C103.39 288.59 101.36 290.3 100.41 291.25C97.1698 294.49 93.5198 296.35 90.6798 296.35V296.37ZM86.4098 288.2C86.5198 288.2 86.6399 288.22 86.7499 288.28C87.0699 288.44 87.2398 288.8 87.1598 289.15C87.0598 289.57 86.2699 293.3 89.2499 294.58C91.1699 295.4 95.14 294.38 99.33 290.2C100.33 289.2 102.38 287.47 104.37 285.79C106.11 284.32 107.76 282.92 108.61 282.1C109.45 281.29 111.96 279.2 112.07 279.12C112.33 278.91 112.69 278.88 112.97 279.06C113.25 279.24 113.38 279.58 113.3 279.9L112.21 283.97C111.89 285.15 111.78 286.86 113 288.29C113.8 289.23 115.09 289.78 116.44 289.78H116.48C117.92 289.77 120.13 289.16 122.51 286.3C126.7 281.28 125.21 272.62 125.02 271.65C124.93 271.15 124.68 269.83 128.07 258.12C129.51 253.15 128.85 247.97 126.22 243.53C123.6 239.1 119.39 236.05 114.36 234.93L114.28 234.91C105.13 232.88 95.92 238.01 92.84 246.86C85.58 267.73 85.4799 267.82 85.2699 268.01C84.9599 268.3 84.54 268.34 82.34 268.45C81.39 268.5 80.3099 268.55 79.7399 268.65C76.4899 269.18 74.0299 269.76 71.7499 270.52C69.4599 271.29 67.4499 272.29 65.7499 273.49C63.8599 274.83 62.87 276.22 62.61 277.84C62.29 279.89 62.6699 281.28 63.7599 281.97C64.8499 282.66 66.4099 282.56 68.5099 281.65C68.8199 281.52 69.1798 281.6 69.3998 281.85C69.6198 282.1 69.6499 282.47 69.4699 282.76C68.4299 284.42 67.6399 286.82 69.7399 288.83C71.4999 290.51 74.2398 289.42 74.6698 289.14C74.9098 288.99 75.2099 288.98 75.4599 289.12C75.7099 289.26 75.86 289.53 75.85 289.81C75.81 291.26 76.5798 292.32 77.9198 292.64C79.6798 293.07 81.6 292.11 82.58 291.5C83.98 290.64 85.04 289.42 85.8 288.46C85.95 288.27 86.1698 288.17 86.3998 288.17L86.4098 288.2Z" fill="black"/>
<path d="M68.8301 283.14C68.6801 283.14 68.5299 283.1 68.3899 283C68.0399 282.76 67.95 282.28 68.2 281.93C72.29 276.04 82.9299 269.14 83.3899 268.85C83.7399 268.62 84.22 268.72 84.45 269.08C84.68 269.44 84.58 269.91 84.22 270.14C84.11 270.21 73.38 277.16 69.46 282.81C69.31 283.02 69.0701 283.14 68.8301 283.14Z" fill="black"/>
<path d="M75.09 290.58C75.02 290.58 74.94 290.57 74.87 290.55C74.46 290.43 74.24 290 74.36 289.59C76.4 282.87 87.0599 272.77 87.5099 272.35C87.8199 272.06 88.3 272.07 88.59 272.38C88.88 272.69 88.87 273.17 88.56 273.46C88.45 273.56 77.75 283.71 75.83 290.03C75.73 290.36 75.42 290.57 75.1 290.57L75.09 290.58Z" fill="black"/>
<path d="M86.4098 289.74C86.3098 289.74 86.21 289.72 86.12 289.68C85.73 289.52 85.5398 289.07 85.6998 288.68C88.3198 282.35 94.81 275.01 95.08 274.7C95.36 274.38 95.8498 274.35 96.1598 274.64C96.4798 274.92 96.5099 275.41 96.2199 275.72C96.1499 275.79 89.63 283.18 87.11 289.27C86.99 289.57 86.6998 289.74 86.3998 289.74H86.4098Z" fill="black"/>
<path d="M378.91 208.02L234.83 207.31L220.81 208.27L150.08 232.3L153.3 243.97C153.97 246.38 154.86 248.73 156.08 250.92C160.73 259.27 168.72 264.73 177.66 266.21C219.55 273.16 345.59 291.6 345.59 291.6L349.68 267.62L370.66 267.79L378.91 208.01V208.02Z" fill="white"/>
<path d="M345.59 292.38C345.59 292.38 345.52 292.38 345.48 292.38C344.22 292.2 218.95 273.86 177.54 266.99C168.16 265.43 160.09 259.72 155.41 251.31C154.25 249.23 153.29 246.83 152.56 244.19L149.34 232.52C149.23 232.13 149.45 231.72 149.83 231.59L220.56 207.56C220.62 207.54 220.69 207.53 220.75 207.52L234.77 206.56C234.77 206.56 234.8 206.56 234.83 206.56L378.91 207.27C379.13 207.27 379.34 207.37 379.49 207.53C379.63 207.7 379.7 207.92 379.67 208.14L371.42 267.92C371.37 268.3 371.04 268.58 370.66 268.58L350.33 268.41L346.35 291.74C346.29 292.11 345.96 292.38 345.59 292.38ZM151.01 232.8L154.04 243.77C154.74 246.29 155.65 248.57 156.75 250.55C161.2 258.55 168.87 263.98 177.79 265.46C217.52 272.05 334.49 289.2 344.96 290.74L348.92 267.5C348.98 267.13 349.3 266.86 349.68 266.86L369.99 267.03L378.03 208.79L234.86 208.09L220.97 209.04L151.02 232.8H151.01Z" fill="black"/>
<path d="M349.68 268.4C349.68 268.4 349.59 268.4 349.55 268.39C349.13 268.32 348.85 267.92 348.92 267.5L354.89 232.46L212.56 221.1C212.14 221.07 211.82 220.7 211.86 220.27C211.9 219.84 212.27 219.54 212.69 219.57L355.85 231C356.06 231.02 356.26 231.12 356.39 231.29C356.52 231.46 356.58 231.68 356.54 231.89L350.43 267.76C350.37 268.13 350.04 268.4 349.67 268.4H349.68Z" fill="black"/>
<path d="M226.19 219.95C226.16 219.5 226.18 219.04 226.26 218.57L232.56 184.35C233.04 181.74 235.32 179.85 237.97 179.85H295.57C299.01 179.85 301.6 182.97 300.98 186.35L294.68 220.57C294.2 223.18 291.92 225.07 289.27 225.07H195.48C194.07 225.07 192.92 223.93 192.92 222.51C192.92 221.1 194.07 219.95 195.48 219.95H226.19Z" fill="white"/>
<path d="M289.27 225.83H195.48C193.65 225.83 192.16 224.34 192.16 222.5C192.16 220.66 193.65 219.18 195.48 219.18H225.42C225.43 218.92 225.46 218.67 225.51 218.43L231.81 184.21C232.36 181.24 234.95 179.08 237.98 179.08H295.58C297.45 179.08 299.2 179.9 300.4 181.34C301.59 182.77 302.09 184.65 301.75 186.49L295.45 220.71C294.9 223.68 292.31 225.84 289.29 225.84L289.27 225.83ZM195.48 220.71C194.49 220.71 193.69 221.51 193.69 222.5C193.69 223.49 194.49 224.29 195.48 224.29H289.27C291.55 224.29 293.51 222.66 293.92 220.41L300.22 186.19C300.48 184.8 300.1 183.39 299.2 182.3C298.3 181.22 296.97 180.6 295.56 180.6H237.96C235.68 180.6 233.72 182.23 233.3 184.48L227 218.7C226.93 219.08 226.91 219.48 226.94 219.89C226.95 220.1 226.88 220.31 226.74 220.47C226.59 220.63 226.39 220.71 226.18 220.71H195.47H195.48Z" fill="black"/>
<path d="M263.62 209.22C267.359 209.22 270.39 206.189 270.39 202.45C270.39 198.711 267.359 195.68 263.62 195.68C259.881 195.68 256.85 198.711 256.85 202.45C256.85 206.189 259.881 209.22 263.62 209.22Z" fill="#166534" fill-opacity="0.75"/>
<path d="M385.1 227.4C369.78 225.07 367.51 247.16 367.51 247.16L353.47 245.42L346.92 283.86L377.95 288.28L386.54 229.64C386.72 228.43 386.13 227.56 385.11 227.4H385.1Z" fill="white"/>
<path d="M377.94 289.04C377.94 289.04 377.87 289.04 377.83 289.04L346.8 284.62C346.6 284.59 346.41 284.48 346.29 284.31C346.17 284.14 346.12 283.93 346.15 283.73L352.7 245.29C352.77 244.89 353.14 244.61 353.55 244.66L366.83 246.31C367.24 243.48 369.04 233.83 375.16 229.09C378 226.89 381.38 226.07 385.2 226.65C386.67 226.87 387.52 228.15 387.28 229.76L378.69 288.4C378.63 288.78 378.31 289.06 377.93 289.06L377.94 289.04ZM347.8 283.2L377.29 287.4L385.77 229.51C385.83 229.14 385.86 228.28 384.98 228.14C381.59 227.62 378.6 228.35 376.11 230.28C369.56 235.35 368.28 247.1 368.27 247.22C368.25 247.43 368.15 247.61 367.98 247.74C367.82 247.87 367.61 247.93 367.41 247.9L354.1 246.25L347.8 283.19V283.2Z" fill="black"/>
<path d="M377.94 288.28L386.53 229.64C386.71 228.43 386.12 227.56 385.1 227.4C369.78 225.07 367.51 247.16 367.51 247.16H366.82L361.15 285.89L377.95 288.28H377.94Z" fill="black"/>
<path d="M177.03 134.29C185.878 134.29 193.05 127.118 193.05 118.27C193.05 109.422 185.878 102.25 177.03 102.25C168.182 102.25 161.01 109.422 161.01 118.27C161.01 127.118 168.182 134.29 177.03 134.29Z" fill="black"/>
<path d="M194.06 123.32C193.81 120 193.03 117.46 192.25 115.36C191.76 114.05 189.96 111.58 188.11 109.83C186.94 108.73 185.03 109.05 184.3 110.48C180.78 117.32 177.58 120.25 176.06 121.11C176.06 121.27 172.41 124.77 172.4 124.91C172.37 125.25 179.45 136.79 169.04 137.01V143.77H186.98V136.26C193.71 135.51 194.67 131.5 194.06 123.32Z" fill="white"/>
<path d="M186.98 142.78C186.56 142.78 186.21 142.44 186.21 142.01V136.26C186.21 135.87 186.5 135.54 186.89 135.5C192.51 134.87 193.94 132.15 193.29 123.38C193.04 120.06 192.26 117.61 191.53 115.64C191.11 114.51 189.42 112.14 187.58 110.4C187.2 110.04 186.68 109.88 186.17 109.97C185.65 110.06 185.22 110.38 184.98 110.84C181.07 118.44 177.75 120.99 176.6 121.7C176.34 122.02 175.79 122.57 174.61 123.75C174.17 124.18 173.63 124.73 173.3 125.07C173.32 125.1 173.33 125.14 173.35 125.17C174.27 127.05 176.71 132.06 174.76 135.27C173.86 136.74 172.2 137.57 169.81 137.76V141.81C169.81 142.23 169.47 142.58 169.04 142.58C168.61 142.58 168.27 142.24 168.27 141.81V137.03C168.27 136.61 168.6 136.27 169.02 136.26C171.26 136.21 172.74 135.61 173.44 134.47C174.96 131.98 172.7 127.36 171.96 125.85C171.67 125.26 171.6 125.11 171.63 124.85C171.65 124.623 172.28 123.893 173.52 122.66C174.18 122 175.18 121.01 175.39 120.75C175.46 120.63 175.56 120.53 175.68 120.46C176.3 120.11 179.6 117.95 183.61 110.14C184.07 109.24 184.91 108.63 185.9 108.46C186.9 108.29 187.89 108.59 188.63 109.28C190.5 111.05 192.4 113.6 192.96 115.1C193.69 117.05 194.55 119.74 194.82 123.27C195.42 131.3 194.45 135.91 187.74 136.94V142.02C187.74 142.44 187.4 142.79 186.97 142.79L186.98 142.78Z" fill="black"/>
<path d="M183.77 137.2C181.38 137.2 179.9 136.92 179.81 136.9C179.39 136.82 179.12 136.42 179.2 136C179.28 135.58 179.68 135.31 180.1 135.39C180.13 135.39 182.89 135.91 186.9 135.49C187.32 135.45 187.7 135.75 187.74 136.17C187.78 136.59 187.48 136.97 187.06 137.01C185.84 137.14 184.73 137.18 183.76 137.18L183.77 137.2Z" fill="black"/>
<path d="M186.88 138.79C186.88 138.79 186.56 141.13 184.24 141.41C181.93 141.69 179.95 136.15 179.95 136.15L186.98 136.26L186.88 138.79Z" fill="black"/>
<path d="M168.79 124.48C169.12 126.8 171.27 128.41 173.59 128.08C175.91 127.75 177.52 125.6 177.19 123.28C176.86 120.96 174.71 119.35 172.39 119.68C170.07 120.01 168.46 122.16 168.79 124.48Z" fill="white"/>
<path d="M173.87 125.29C173.67 125.29 173.47 125.21 173.32 125.05L171.47 123.12C171.18 122.81 171.19 122.33 171.49 122.03C171.8 121.74 172.28 121.75 172.58 122.05L174.43 123.98C174.72 124.29 174.71 124.77 174.41 125.06C174.26 125.2 174.07 125.27 173.88 125.27L173.87 125.29Z" fill="black"/>
<path d="M187.65 128.67C187.65 128.67 187.57 128.67 187.52 128.66C185.88 128.39 185.02 126.78 184.98 126.71C184.78 126.33 184.93 125.87 185.3 125.67C185.67 125.47 186.14 125.62 186.33 125.99C186.33 126.01 186.88 126.99 187.76 127.14C188.18 127.21 188.46 127.6 188.39 128.02C188.33 128.4 188 128.66 187.63 128.66L187.65 128.67Z" fill="black"/>
<path d="M190.39 119.39C190.41 119.95 189.98 120.42 189.42 120.45C188.86 120.47 188.39 120.04 188.36 119.48C188.34 118.92 188.77 118.45 189.33 118.42C189.89 118.4 190.36 118.83 190.39 119.39Z" fill="black"/>
<path d="M182.96 120.22C182.98 120.78 182.55 121.25 181.99 121.28C181.43 121.3 180.96 120.87 180.93 120.31C180.91 119.75 181.34 119.28 181.9 119.25C182.46 119.23 182.93 119.66 182.96 120.22Z" fill="black"/>
<path d="M190.25 125.68C189.93 125.68 189.64 125.48 189.53 125.17L187.25 118.65C187.11 118.25 187.32 117.81 187.72 117.67C188.12 117.53 188.56 117.74 188.7 118.14L190.97 124.66C191.11 125.06 190.9 125.5 190.5 125.64C190.42 125.67 190.33 125.68 190.25 125.68Z" fill="black"/>
<path d="M331.33 91.25H273.58C256.88 91.25 243.34 104.79 243.34 121.49C243.34 138.19 256.88 151.73 273.58 151.73H292.34L302.45 167.28L312.56 151.73H331.32C348.02 151.73 361.56 138.19 361.56 121.49C361.56 104.79 348.02 91.25 331.32 91.25H331.33Z" fill="#166534" fill-opacity="0.75"/>
<path d="M264.87 58.71C264.87 46.31 254.82 36.26 242.42 36.26H199.55C187.15 36.26 177.1 46.31 177.1 58.71C177.1 71.11 187.15 81.16 199.55 81.16H227.54L235.05 92.7L242.56 81.16H242.43C254.83 81.16 264.88 71.11 264.88 58.71H264.87Z" fill="white"/>
<path d="M235.05 93.47C234.79 93.47 234.55 93.34 234.41 93.12L227.13 81.93H199.55C186.75 81.93 176.34 71.52 176.34 58.71C176.34 45.9 186.75 35.5 199.55 35.5H242.42C255.22 35.5 265.63 45.91 265.63 58.71C265.63 71.51 255.51 81.62 242.97 81.92L235.69 93.12C235.55 93.34 235.31 93.47 235.05 93.47ZM199.55 37.03C187.6 37.03 177.87 46.76 177.87 58.71C177.87 70.66 187.6 80.39 199.55 80.39H227.54C227.8 80.39 228.04 80.52 228.18 80.74L235.04 91.29L241.65 81.13C241.66 80.72 242 80.39 242.42 80.39C254.37 80.39 264.1 70.66 264.1 58.71C264.1 46.76 254.37 37.03 242.42 37.03H199.55Z" fill="black"/>
<path d="M302.46 168.03C302.2 168.03 301.96 167.9 301.82 167.68L291.94 152.48H273.59C256.49 152.48 242.59 138.57 242.59 121.48C242.59 104.39 256.5 90.48 273.59 90.48H331.34C348.44 90.48 362.34 104.39 362.34 121.48C362.34 138.57 348.43 152.48 331.34 152.48H312.99L303.11 167.68C302.97 167.9 302.73 168.03 302.47 168.03H302.46ZM273.59 92.01C257.34 92.01 244.12 105.23 244.12 121.48C244.12 137.73 257.34 150.95 273.59 150.95H292.35C292.61 150.95 292.85 151.08 292.99 151.3L302.46 165.86L311.93 151.3C312.07 151.08 312.31 150.95 312.57 150.95H331.33C347.58 150.95 360.8 137.73 360.8 121.48C360.8 105.23 347.58 92.01 331.33 92.01H273.58H273.59Z" fill="black"/>
<path d="M308.8 121.48C308.8 124.99 305.96 127.83 302.45 127.83C298.94 127.83 296.1 124.99 296.1 121.48C296.1 117.97 298.94 115.13 302.45 115.13C305.96 115.13 308.8 117.97 308.8 121.48Z" fill="white"/>
<path d="M278.93 121.48C278.93 124.99 276.09 127.83 272.58 127.83C269.07 127.83 266.23 124.99 266.23 121.48C266.23 117.97 269.07 115.13 272.58 115.13C276.09 115.13 278.93 117.97 278.93 121.48Z" fill="white"/>
<path d="M338.68 121.48C338.68 124.99 335.84 127.83 332.33 127.83C328.82 127.83 325.98 124.99 325.98 121.48C325.98 117.97 328.82 115.13 332.33 115.13C335.84 115.13 338.68 117.97 338.68 121.48Z" fill="white"/>
<path d="M253.35 143.95L251.85 142.49C255.37 130.73 247 122.59 247 122.59C247 122.59 250.77 119.81 254.6 116.15C258.43 112.49 254.25 106.92 249.2 107.62C248.35 107.74 247.34 108.06 246.25 108.54C240.88 110.9 233.59 117.08 233.88 121.66C234.23 127.16 236.14 134.3 236.14 134.3L232.68 147.71C230.41 156.52 235.7 165.51 244.5 167.81C253.2 170.08 262.11 164.96 264.55 156.3L266.1 150.79C261.28 149.56 256.93 147.18 253.34 143.95H253.35Z" fill="white"/>
<path d="M248.61 169.09C247.19 169.09 245.75 168.91 244.31 168.54C235.11 166.15 229.56 156.71 231.94 147.51L235.35 134.3C235.03 133.09 233.43 126.78 233.11 121.7C232.8 116.73 240.37 110.28 245.94 107.83C247.13 107.31 248.2 106.98 249.09 106.85C252.08 106.44 255.05 107.97 256.31 110.59C257.34 112.72 256.9 115.01 255.13 116.7C252.26 119.44 249.4 121.71 248.13 122.68C250 124.86 255.45 132.32 252.71 142.25L253.87 143.38C257.41 146.57 261.7 148.87 266.29 150.03C266.49 150.08 266.66 150.21 266.77 150.39C266.87 150.57 266.9 150.78 266.84 150.98L265.29 156.49C263.16 164.06 256.16 169.08 248.61 169.08V169.09ZM250.07 108.32C249.82 108.32 249.57 108.34 249.31 108.37C248.56 108.47 247.61 108.77 246.56 109.23C241.52 111.44 234.37 117.36 234.64 121.59C234.98 126.95 236.86 134.01 236.88 134.08C236.91 134.21 236.91 134.34 236.88 134.47L233.42 147.88C231.26 156.26 236.32 164.86 244.69 167.04C252.93 169.18 261.5 164.26 263.81 156.07L265.15 151.31C260.6 150.03 256.36 147.68 252.83 144.5C252.83 144.5 252.82 144.49 252.81 144.48L251.31 143.02C251.1 142.82 251.03 142.52 251.11 142.25C254.45 131.1 246.54 123.19 246.46 123.11C246.3 122.95 246.22 122.73 246.23 122.51C246.25 122.29 246.36 122.08 246.54 121.95C246.58 121.92 250.32 119.16 254.07 115.58C255.35 114.35 255.67 112.77 254.93 111.25C254.19 109.71 252.33 108.31 250.07 108.31V108.32Z" fill="black"/>
<path d="M144.17 198.49C144.11 198.49 144.04 198.49 143.98 198.47C143.57 198.36 143.32 197.95 143.43 197.54L150.3 170.9C150.41 170.49 150.82 170.24 151.23 170.35C151.64 170.46 151.89 170.87 151.78 171.28L144.91 197.92C144.82 198.27 144.51 198.5 144.17 198.5V198.49Z" fill="white"/>
<path d="M212.63 183.26C212.21 183.26 211.86 182.92 211.86 182.49C211.86 182.06 212.2 181.72 212.63 181.72C216.81 181.72 220.21 178.32 220.21 174.14C220.21 169.96 216.81 166.56 212.63 166.56C212.21 166.56 211.86 166.22 211.86 165.79C211.86 165.36 212.2 165.02 212.63 165.02C217.66 165.02 221.75 169.11 221.75 174.14C221.75 179.17 217.66 183.26 212.63 183.26Z" fill="white"/>
<path d="M212.63 166.56C212.63 166.56 212.54 166.56 212.49 166.55C212.07 166.48 211.8 166.08 211.87 165.66L213.7 155.47C213.77 155.05 214.17 154.78 214.59 154.85C215.01 154.92 215.28 155.32 215.21 155.74L213.38 165.93C213.31 166.3 212.99 166.56 212.63 166.56Z" fill="white"/>
<path d="M220.82 209.04C220.49 209.04 220.19 208.83 220.09 208.51L212.11 183.37C211.98 182.97 212.21 182.53 212.61 182.41C213.02 182.28 213.44 182.51 213.57 182.91L221.55 208.05C221.68 208.45 221.45 208.89 221.05 209.01C220.97 209.03 220.89 209.05 220.82 209.05V209.04Z" fill="white"/>
<path d="M212.83 183.9C212.5 183.9 212.2 183.69 212.1 183.37L211.9 182.73C211.77 182.33 212 181.89 212.4 181.77C212.8 181.64 213.24 181.86 213.36 182.27L213.56 182.91C213.69 183.31 213.46 183.75 213.06 183.87C212.98 183.89 212.9 183.91 212.83 183.91V183.9Z" fill="white"/>
<path d="M176.29 127.83C176.29 128.81 175.5 129.6 174.52 129.6C173.54 129.6 172.75 128.81 172.75 127.83C172.75 126.85 173.54 126.06 174.52 126.06C175.5 126.06 176.29 126.85 176.29 127.83Z" fill="#166534" fill-opacity="0.75"/>
<path d="M63.2601 215.22C63.2601 215.22 86.8401 173.24 64.3201 173.02C42.0101 172.8 63.2601 215.22 63.2601 215.22Z" fill="#166534" fill-opacity="0.75"/>
<path d="M61.31 211.42C61.31 211.42 31.97 177.02 23.6 192.84C15.44 208.25 61.31 211.42 61.31 211.42Z" fill="white"/>
<path d="M61.31 212.18C61.31 212.18 61.2799 212.18 61.2599 212.18C59.9199 212.09 28.3699 209.8 22.7499 199.68C21.5099 197.46 21.5698 195.03 22.9298 192.47C24.3598 189.77 26.4498 188.26 29.1598 187.96C41.0498 186.64 61.0498 209.92 61.8998 210.91C62.0998 211.15 62.1399 211.48 61.9999 211.75C61.8699 212.01 61.6 212.17 61.31 212.17V212.18ZM30.1898 189.44C29.8998 189.44 29.61 189.46 29.33 189.49C27.13 189.73 25.4799 190.95 24.2899 193.2C23.1799 195.3 23.12 197.18 24.1 198.94C28.58 206.99 52.5099 209.83 59.4799 210.49C55.0199 205.54 39.7599 189.45 30.1999 189.45L30.1898 189.44Z" fill="black"/>
<path d="M47.6202 188.12C47.6202 188.12 39.5501 156.64 29.2601 162.61C19.2501 168.42 41.9802 185.3 47.6202 188.12Z" fill="#166534" fill-opacity="0.75"/>
<path d="M74.0601 253.19C73.6501 253.19 73.31 252.87 73.29 252.46C71.87 223.63 46.51 187.85 46.25 187.49C46 187.15 46.0799 186.67 46.4299 186.42C46.7699 186.17 47.25 186.25 47.5 186.6C47.76 186.96 73.3801 223.1 74.8201 252.38C74.8401 252.8 74.5101 253.16 74.0901 253.18C74.0801 253.18 74.0601 253.18 74.0501 253.18L74.0601 253.19Z" fill="black"/>
<path d="M128.55 288.73L175.1 306.36L215.29 292.11L171.72 279.4L128.55 288.73Z" fill="white"/>
<path d="M175.1 307.13C175.01 307.13 174.92 307.11 174.83 307.08L128.28 289.45C127.96 289.33 127.76 289.01 127.79 288.68C127.82 288.34 128.06 288.06 128.39 287.99L171.56 278.65C171.68 278.62 171.81 278.63 171.94 278.66L215.51 291.38C215.83 291.47 216.05 291.76 216.06 292.09C216.06 292.42 215.86 292.72 215.55 292.84L175.36 307.09C175.28 307.12 175.19 307.13 175.1 307.13ZM131.25 288.94L175.11 305.55L212.8 292.19L171.69 280.19L131.25 288.94Z" fill="black"/>
<path d="M134.52 53.93C126.83 52.28 122.59 57.29 122.59 57.29C122.59 57.29 114.81 35.99 91.04 35.99C67.27 35.99 59.49 57.29 59.49 57.29C59.49 57.29 55.2501 52.27 47.5601 53.93C37.2301 56.15 30.78 70 30.78 70H151.3C151.3 70 144.85 56.15 134.52 53.93Z" fill="white"/>
<path d="M151.3 70.76H30.7801C30.5201 70.76 30.27 70.63 30.13 70.41C29.99 70.19 29.9702 69.91 30.0802 69.67C30.3502 69.09 36.81 55.45 47.39 53.17C53.52 51.85 57.5601 54.51 59.2201 55.95C61.2301 51.57 70.1201 35.22 91.0401 35.22C111.96 35.22 120.85 51.57 122.86 55.95C124.52 54.51 128.56 51.85 134.69 53.17C145.27 55.45 151.73 69.09 152 69.67C152.11 69.91 152.09 70.19 151.95 70.41C151.81 70.63 151.57 70.76 151.3 70.76ZM32.0401 69.23H150.05C148.3 65.97 142.53 56.43 134.37 54.68C127.25 53.15 123.35 57.6 123.18 57.79C123 58 122.72 58.09 122.46 58.05C122.19 58 121.97 57.82 121.88 57.56C121.8 57.35 113.99 36.76 91.0502 36.76C68.1102 36.76 60.3001 57.35 60.2201 57.56C60.1301 57.82 59.9 58 59.63 58.05C59.36 58.1 59.09 58 58.91 57.79C58.75 57.6 54.8501 53.15 47.7201 54.68C39.5601 56.44 33.7901 65.97 32.0401 69.23Z" fill="black"/>
<path d="M190.86 10.56C182.61 10.56 179.04 16.14 179.04 16.14C174.04 2.07001 164.56 0.849976 161 0.849976C157.44 0.849976 147.96 2.07001 142.96 16.14C142.96 16.14 139.39 10.56 131.14 10.56C122.89 10.56 119.02 20.75 119.02 20.75H202.98C202.98 20.75 199.11 10.56 190.86 10.56Z" fill="white"/>
<path d="M202.98 21.51H119.02C118.77 21.51 118.53 21.39 118.39 21.18C118.25 20.97 118.21 20.71 118.3 20.47C118.47 20.03 122.46 9.78998 131.14 9.78998C137.46 9.78998 141.15 12.88 142.71 14.6C147.89 1.51998 157.16 0.0800171 160.99 0.0800171C164.82 0.0800171 174.09 1.52998 179.27 14.6C180.84 12.88 184.53 9.78998 190.84 9.78998C199.52 9.78998 203.52 20.04 203.68 20.47C203.77 20.71 203.74 20.97 203.59 21.18C203.45 21.39 203.21 21.51 202.96 21.51H202.98ZM120.21 19.98H201.8C200.58 17.48 196.96 11.33 190.86 11.33C183.12 11.33 179.72 16.5 179.69 16.55C179.53 16.8 179.24 16.93 178.96 16.9C178.67 16.87 178.42 16.67 178.32 16.39C173.58 3.05001 164.63 1.60999 161.01 1.60999C157.39 1.60999 148.43 3.05001 143.7 16.39C143.6 16.67 143.36 16.86 143.06 16.9C142.77 16.93 142.48 16.8 142.33 16.55C142.19 16.34 138.86 11.33 131.16 11.33C125.06 11.33 121.44 17.48 120.22 19.98H120.21Z" fill="black"/>
<path d="M218.59 64.51C218.09 64.51 217.6 64.5 217.1 64.47C213.7 64.28 210.88 63.44 208.72 61.97C208.2 61.61 207.71 61.22 207.27 60.79C206.25 61.56 205.08 62.18 203.8 62.61C200.72 63.65 197.45 63.43 194.83 62.03C194.46 61.83 194.32 61.36 194.52 60.99C194.72 60.62 195.19 60.48 195.56 60.68C197.81 61.89 200.63 62.06 203.31 61.16C204.39 60.8 205.38 60.28 206.25 59.64C205.04 58.03 204.37 56.14 204.42 54.27C204.47 52.22 205.76 50.05 207.82 49.97C209.32 49.91 210.75 51.08 211.16 52.7C211.47 53.89 211.28 55.25 210.6 56.73C210.08 57.86 209.35 58.89 208.44 59.79C208.79 60.12 209.17 60.43 209.59 60.71C211.51 62.02 214.07 62.77 217.19 62.95C222.34 63.24 227.62 61.92 232.08 59.3C231.45 58.49 231.01 57.62 230.76 56.72C230.18 54.58 230.89 52.26 232.49 51.08C233.42 50.39 234.68 50.15 235.88 50.43C236.96 50.68 237.8 51.31 238.26 52.21C239.5 54.63 237.64 57.23 235.49 58.87C235.16 59.12 234.82 59.37 234.48 59.6C234.7 59.79 234.91 59.96 235.12 60.11C238.93 62.94 244.5 63.33 248.66 61.05C249.03 60.85 249.5 60.98 249.7 61.35C249.9 61.72 249.77 62.19 249.4 62.39C244.65 64.99 238.55 64.56 234.2 61.33C233.82 61.05 233.47 60.75 233.14 60.45C228.79 63.08 223.67 64.52 218.6 64.52L218.59 64.51ZM207.93 51.49C207.93 51.49 207.9 51.49 207.88 51.49C206.77 51.53 205.99 52.98 205.96 54.3C205.92 55.79 206.45 57.31 207.42 58.63C208.17 57.88 208.77 57.02 209.2 56.08C209.73 54.92 209.89 53.91 209.67 53.07C209.47 52.3 208.75 51.49 207.93 51.49ZM234.89 51.84C234.34 51.84 233.8 52 233.39 52.3C232.29 53.11 231.82 54.76 232.23 56.31C232.45 57.13 232.87 57.85 233.37 58.47C233.77 58.2 234.16 57.92 234.54 57.63C236.12 56.43 237.68 54.47 236.87 52.9C236.62 52.41 236.14 52.06 235.51 51.92C235.3 51.87 235.09 51.85 234.88 51.85L234.89 51.84Z" fill="#166534" fill-opacity="0.75"/>
<path d="M294.583 36.3461L286.196 73.5016L323.352 81.8886L331.738 44.7331L294.583 36.3461Z" fill="white"/>
<path d="M323.19 82.57C323.13 82.57 323.08 82.57 323.02 82.55L285.86 74.16C285.45 74.07 285.19 73.66 285.28 73.24L293.67 36.08C293.76 35.67 294.17 35.41 294.59 35.5L331.75 43.89C332.16 43.98 332.42 44.39 332.33 44.81L323.94 81.97C323.86 82.33 323.54 82.57 323.19 82.57ZM286.95 72.84L322.61 80.89L330.66 45.23L295 37.18L286.95 72.84Z" fill="black"/>
<path d="M304.26 65.45C304.01 65.45 303.76 65.33 303.62 65.1L296.8 54.64C296.57 54.28 296.67 53.81 297.02 53.58C297.37 53.35 297.85 53.45 298.08 53.8L304.5 63.64L325.99 50.78C326.35 50.56 326.82 50.68 327.04 51.04C327.26 51.4 327.14 51.87 326.78 52.09L304.65 65.33C304.53 65.4 304.39 65.44 304.26 65.44V65.45Z" fill="black"/>
<path d="M153.12 291.82C152.78 291.82 152.47 291.59 152.38 291.25C152.27 290.84 152.51 290.42 152.92 290.31L175.14 284.37C175.55 284.26 175.97 284.5 176.08 284.91C176.19 285.32 175.95 285.74 175.54 285.85L153.32 291.79C153.25 291.81 153.19 291.82 153.12 291.82Z" fill="black"/>
<path d="M170.55 298.11C170.24 298.11 169.94 297.92 169.83 297.6C169.69 297.2 169.89 296.76 170.29 296.62L188.81 289.92C189.21 289.78 189.65 289.98 189.79 290.38C189.93 290.78 189.73 291.22 189.33 291.36L170.81 298.06C170.72 298.09 170.64 298.11 170.55 298.11Z" fill="black"/>
<path d="M375.97 184.4C375.97 184.4 346.71 153.92 366.73 147.79C384.63 142.3 375.97 184.4 375.97 184.4Z" fill="#166534" fill-opacity="0.75"/>
<path d="M388 160.33C388 160.33 390.84 125.44 404.71 131.98C416.76 137.66 388 160.33 388 160.33Z" fill="white"/>
<path d="M388 161.1C387.88 161.1 387.75 161.07 387.64 161.01C387.37 160.87 387.21 160.58 387.24 160.27C387.32 159.29 389.28 136.34 397.87 131.37C400.05 130.11 402.47 130.08 405.04 131.29C407.05 132.24 408.17 133.68 408.39 135.58C409.39 144.34 389.33 160.26 388.47 160.93C388.33 161.04 388.16 161.09 387.99 161.09L388 161.1ZM401.39 131.93C400.43 131.93 399.52 132.18 398.64 132.69C392.05 136.5 389.6 153.02 388.96 158.57C395.28 153.35 407.57 141.82 406.87 135.75C406.72 134.39 405.9 133.39 404.39 132.67C403.33 132.17 402.34 131.92 401.39 131.92V131.93Z" fill="black"/>
<path d="M375.97 184.4C375.97 184.4 406.52 155.17 412.67 173.99C418.81 192.82 375.97 184.4 375.97 184.4Z" fill="#166534" fill-opacity="0.75"/>
<path d="M370.23 208.74C370.23 208.74 370.21 208.74 370.2 208.74C369.78 208.72 369.45 208.37 369.46 207.94C370.24 188.9 386.64 161.11 387.34 159.94C387.56 159.58 388.03 159.46 388.39 159.67C388.75 159.89 388.87 160.36 388.66 160.72C388.49 161 371.76 189.35 370.99 208C370.97 208.41 370.63 208.74 370.22 208.74H370.23Z" fill="black"/>
<path d="M64.0901 253.19C63.7701 253.19 63.4701 252.99 63.3601 252.67L59.74 241.98C59.6 241.58 59.82 241.14 60.22 241.01C60.62 240.87 61.06 241.09 61.19 241.49L64.8101 252.18C64.9501 252.58 64.7301 253.02 64.3301 253.15C64.2501 253.18 64.1701 253.19 64.0801 253.19H64.0901Z" fill="black"/>
<path d="M55.8602 253.19C55.6202 253.19 55.39 253.08 55.24 252.87L50.92 246.9C50.67 246.56 50.7501 246.08 51.0901 245.83C51.4301 245.58 51.91 245.66 52.16 246L56.48 251.97C56.73 252.31 56.6501 252.79 56.3101 253.04C56.1701 253.14 56.0202 253.19 55.8602 253.19Z" fill="black"/>
<path d="M284.21 307.13C283.96 307.13 283.72 307.01 283.57 306.78L278.29 298.75C278.06 298.4 278.16 297.92 278.51 297.69C278.86 297.46 279.34 297.56 279.57 297.91L284.85 305.94C285.08 306.29 284.98 306.77 284.63 307C284.5 307.09 284.35 307.13 284.21 307.13Z" fill="black"/>
<path d="M291.86 307.13C291.44 307.13 291.09 306.79 291.09 306.36V292.88C291.09 292.46 291.43 292.11 291.86 292.11C292.29 292.11 292.63 292.45 292.63 292.88V306.36C292.63 306.78 292.29 307.13 291.86 307.13Z" fill="black"/>
<path d="M301.07 307.13C300.93 307.13 300.8 307.09 300.67 307.02C300.31 306.8 300.19 306.33 300.41 305.97L304.52 299.23C304.74 298.87 305.21 298.75 305.57 298.97C305.93 299.19 306.05 299.66 305.83 300.02L301.72 306.76C301.58 307 301.32 307.13 301.06 307.13H301.07Z" fill="black"/>
<path d="M413.27 253.19C413.21 253.19 413.14 253.19 413.08 253.17C412.67 253.06 412.42 252.65 412.53 252.24L415.72 239.79C415.83 239.38 416.24 239.13 416.65 239.24C417.06 239.35 417.31 239.76 417.2 240.17L414.01 252.62C413.92 252.97 413.61 253.2 413.27 253.2V253.19Z" fill="black"/>
<path d="M420.77 253.19C420.63 253.19 420.5 253.15 420.37 253.08C420.01 252.86 419.89 252.39 420.11 252.03L425.2 243.59C425.42 243.23 425.89 243.11 426.25 243.33C426.61 243.55 426.73 244.02 426.51 244.38L421.42 252.82C421.28 253.06 421.02 253.19 420.76 253.19H420.77Z" fill="black"/>
<path d="M294.68 220.72H226.19C225.77 220.72 225.42 220.38 225.42 219.95C225.42 219.52 225.76 219.18 226.19 219.18H294.68C295.1 219.18 295.45 219.52 295.45 219.95C295.45 220.38 295.11 220.72 294.68 220.72Z" fill="black"/>
<path d="M340.65 185.93C340.45 185.93 340.26 185.86 340.11 185.71L329.47 175.07C329.17 174.77 329.17 174.28 329.47 173.98C329.77 173.68 330.26 173.68 330.55 173.98L341.19 184.62C341.49 184.92 341.49 185.41 341.19 185.7C341.04 185.85 340.84 185.92 340.65 185.92V185.93Z" fill="black"/>
<path d="M330 185.93C329.8 185.93 329.61 185.86 329.46 185.71C329.16 185.41 329.16 184.92 329.46 184.63L340.1 173.99C340.4 173.69 340.89 173.69 341.19 173.99C341.49 174.29 341.49 174.78 341.19 175.08L330.55 185.72C330.4 185.87 330.2 185.94 330.01 185.94L330 185.93Z" fill="black"/>
<path d="M93.9099 177.58C88.2199 177.58 83.5901 172.95 83.5901 167.26C83.5901 161.57 88.2199 156.94 93.9099 156.94C99.5999 156.94 104.23 161.57 104.23 167.26C104.23 172.95 99.5999 177.58 93.9099 177.58ZM93.9099 158.48C89.0699 158.48 85.1299 162.42 85.1299 167.26C85.1299 172.1 89.0699 176.04 93.9099 176.04C98.7499 176.04 102.69 172.1 102.69 167.26C102.69 162.42 98.7499 158.48 93.9099 158.48Z" fill="black"/>
</svg>
