<?xml version="1.0" encoding="UTF-8"?>
<svg id="Layer_2" data-name="Layer 2" xmlns="http://www.w3.org/2000/svg" viewBox="0 0 298.62 309.99">
  <defs>
    <style>
      .cls-1 {
        fill: #fff;
      }

      .cls-2 {
        fill: #3f6212;
      }

      .cls-3 {
        fill: #4d7c0fe6;
      }
    </style>
  </defs>
  <g id="_Layer_" data-name="&amp;lt;Layer&amp;gt;">
    <g>
      <g>
        <circle class="cls-2" cx="274.61" cy="249.44" r="20.31"/>
        <circle class="cls-2" cx="233.06" cy="20.31" r="20.31" transform="translate(159.74 242.47) rotate(-76.72)"/>
        <circle class="cls-2" cx="95.3" cy="133.54" r="95.3" transform="translate(-66.52 106.5) rotate(-45)"/>
      </g>
      <g>
        <path class="cls-1" d="m142.37,52.24h94.34c16.71,0,30.27,13.56,30.27,30.27v171.85c0,16.71-13.56,30.27-30.27,30.27h-94.34c-16.71,0-30.27-13.56-30.27-30.27V82.5c0-16.71,13.56-30.27,30.27-30.27Z" transform="translate(379.08 336.86) rotate(180)"/>
        <path d="m251.38,285.39h-123.68c-9.02,0-16.37-7.34-16.37-16.37V67.83c0-9.02,7.34-16.37,16.37-16.37h123.68c9.02,0,16.37,7.34,16.37,16.37v201.19c0,9.02-7.34,16.37-16.37,16.37ZM127.7,53c-8.18,0-14.83,6.65-14.83,14.83v201.19c0,8.18,6.65,14.83,14.83,14.83h123.68c8.18,0,14.83-6.65,14.83-14.83V67.83c0-8.18-6.65-14.83-14.83-14.83h-123.68Z"/>
        <rect class="cls-3" x="90.79" y="92.9" width="197.51" height="134.39" rx="20.49" ry="20.49" transform="translate(349.64 -29.44) rotate(90)"/>
      </g>
      <g>
        <path class="cls-1" d="m296.42,164.43c1.45-14.55-8.61-15.37-8.61-15.37,0,0,14.11-11.11,8.9-23.99-5.21-12.89-14.02-10.31-14.02-10.31,0,0,10.08-9.67,4.63-21.39-5.45-11.72-24.6-8.43-33.98-1.67-9.38,6.76-15.44,15-11.48,25.43,3.95,10.43,11.42,9.89,11.42,9.89,0,0-9.08,6.48-5.2,18.36,3.88,11.88,13.33,10.31,13.33,10.31,0,0-18.58,4.93-13.33,21.61,3.98,12.65,13.33,10.29,13.33,10.29,0,0-19.65,8.69-14.16,22.95,5.49,14.26,22.95,7.8,31.35,3.39,8.4-4.41,16.66-19.77,3.31-31.35,0,0,13.24-5.29,14.51-18.14Z"/>
        <path d="m260.39,220.04c-2.07,0-4.11-.29-5.99-1-3.65-1.37-6.3-4.14-7.87-8.23-4.33-11.25,6.28-19.2,11.66-22.38-3.36-.42-8.34-2.54-10.85-10.91-1.4-4.66-1.09-8.92.92-12.65,2.41-4.46,6.7-7.18,9.67-8.61-3.32-.67-8.1-3.02-10.59-10.65-3.04-9.3,1.62-15.51,4.1-18-2.63-.51-7.39-2.53-10.3-10.22-3.58-9.43.27-18.04,11.75-26.32,6.04-4.36,17.09-7.78,25.66-5.54,4.45,1.16,7.72,3.76,9.47,7.51,4.35,9.34-.84,17.5-3.46,20.75,3.11.02,9.01,1.45,12.87,10.98,4.44,10.98-4.63,20.75-7.97,23.86,1.33.42,3.26,1.32,4.88,3.27,2.43,2.91,3.38,7.15,2.84,12.59-1.1,11.09-10.61,16.67-13.9,18.28,6.04,5.71,6.78,11.78,6.3,15.94-.87,7.53-6.13,13.51-10.64,15.88-3.55,1.86-11.3,5.44-18.56,5.44Zm1.01-33.22c.32,0,.62.2.72.52.13.38-.05.79-.41.95-.19.08-18.92,8.57-13.76,21.97,1.41,3.66,3.76,6.13,6.98,7.35,7.89,2.97,18.92-2.06,23.3-4.36,4.17-2.19,9.02-7.72,9.83-14.7.46-3.99-.32-9.89-6.66-15.4-.2-.17-.3-.44-.25-.71.04-.26.22-.49.47-.58.13-.05,12.82-5.28,14.04-17.5.5-5-.33-8.85-2.47-11.43-2.31-2.79-5.4-3.09-5.43-3.09-.31-.03-.58-.24-.67-.55-.09-.3.01-.63.26-.82.14-.11,13.59-10.91,8.66-23.1-4.87-12.04-12.76-9.96-13.1-9.86-.34.1-.7-.05-.88-.36-.18-.31-.12-.69.13-.93.1-.09,9.62-9.44,4.47-20.51-1.57-3.37-4.42-5.62-8.46-6.68-8.11-2.12-18.61,1.15-24.37,5.3-10.84,7.81-14.51,15.84-11.22,24.53,3.68,9.72,10.37,9.42,10.65,9.4.34-.02.66.19.77.51.11.32,0,.68-.28.88-.35.25-8.57,6.32-4.92,17.5,3.62,11.08,12.12,9.85,12.48,9.79.4-.06.78.19.87.59.09.39-.14.79-.53.91-.08.02-8.46,2.59-12.02,9.19-1.81,3.36-2.08,7.22-.8,11.47,3.57,11.86,12.05,9.85,12.41,9.76.06-.02.13-.02.19-.02Z"/>
        <path d="m253.27,127.78c-.17,0-.34-.06-.48-.17-.33-.27-.38-.75-.11-1.08.75-.92,18.95-8.22,29.73-12.49.39-.16.84.04,1,.43.16.39-.04.84-.43,1-11.06,4.38-27.9,11.19-29.16,12.09-.15.15-.34.22-.54.22Zm.6-.28s0,0,0,0c0,0,0,0,0,0Z"/>
        <path d="m261.4,156.45c-.34,0-.66-.23-.74-.58-.1-.41.15-.83.56-.93l26.41-6.62c.41-.1.83.15.93.56.1.41-.15.83-.56.93l-26.41,6.62c-.06.02-.13.02-.19.02Z"/>
        <path d="m261.4,188.35c-.35,0-.66-.23-.74-.59-.1-.41.15-.83.56-.93l20.5-5.02c.41-.1.83.15.93.56.1.41-.15.83-.56.93l-20.5,5.02c-.06.01-.12.02-.18.02Z"/>
      </g>
      <path class="cls-1" d="m127.7,284.37c-8.61,0-15.6-6.98-15.6-15.6v-80.28l.11-39.47s7.67-13,19.11-29.44c14.77-21.22-5.54-38.19-21.94-24.55-16.4,13.63-22.33,24.55-25.14,42.81-1.65,10.75,2.64,43.37,2.64,43.37l-15.9,23.19c-20.68,30.09-13.42,71.2,16.3,92.4h0c28.94,20.64,68.8,14.98,90.92-12.44h-50.5Z"/>
      <path d="m126.08,309.99c-13.63,0-27.37-4.1-39.24-12.56-14.54-10.37-24.26-25.77-27.36-43.36-3.1-17.59.76-35.38,10.87-50.1l15.74-22.95c-.45-3.48-4.18-32.99-2.6-43.3,2.92-19,9.33-29.92,25.41-43.29,8.84-7.35,18.29-5.72,23.32-1.1,5.15,4.73,8.18,14.56-.26,26.68-10.58,15.19-18.01,27.59-18.97,29.21l-.11,39.26v80.27c0,8.18,6.65,14.83,14.83,14.83h50.5c.3,0,.56.17.69.44.13.27.09.58-.1.81-13.3,16.49-32.9,25.14-52.72,25.14Zm-4.34-219.12c-3.69,0-7.81,1.37-11.86,4.74-15.74,13.09-22.02,23.77-24.87,42.34-1.61,10.51,2.6,42.83,2.64,43.16.02.19-.02.38-.13.53l-15.9,23.19c-20.31,29.55-13.08,70.53,16.12,91.34,28.02,19.98,66.72,15.05,88.84-11.05h-48.87c-9.02,0-16.37-7.34-16.37-16.37v-80.28l.11-39.47c0-.14.04-.27.11-.39.08-.13,7.81-13.21,19.14-29.49,7.87-11.31,5.18-20.36.48-24.67-2.37-2.18-5.69-3.6-9.44-3.6Z"/>
      <path d="m129.36,284.37h-1.66c-6.11,0-11.39-3.51-13.95-8.63-.15-.11-.3-.21-.45-.32h0c-27.96-19.93-39.69-54.24-32.19-85.78l-10.13,14.77c-20.68,30.09-13.42,71.2,16.3,92.4h0c26.96,19.22,63.38,15.63,86.13-7.12-14.65,2.26-29.9.58-44.05-5.33Z"/>
      <g>
        <path class="cls-1" d="m196.68,98.04c-3.81-3.71-9.89-3.71-13.7,0l-39.57,37.8v62.85h92.85v-62.85l-39.57-37.8Z"/>
        <path d="m236.25,199.47h-92.85c-.42,0-.77-.34-.77-.77v-62.85c0-.21.09-.41.24-.56l39.57-37.8c4.13-4.03,10.62-4.03,14.76,0l39.57,37.8c.15.14.24.35.24.56v62.85c0,.42-.34.77-.77.77Zm-92.08-1.53h91.31v-61.75l-39.34-37.58s0,0,0,0c-3.54-3.45-9.09-3.45-12.63,0l-39.34,37.58v61.75Z"/>
        <path d="m143.4,199.47c-.18,0-.37-.07-.52-.2-.31-.28-.34-.77-.05-1.08l30.24-33.38c.28-.31.77-.34,1.08-.05.31.28.34.77.05,1.08l-30.24,33.38c-.15.17-.36.25-.57.25Z"/>
        <path d="m236.25,199.47c-.22,0-.43-.09-.59-.27l-29.2-34.39c-.27-.32-.23-.81.09-1.08.32-.27.81-.23,1.08.09l29.2,34.39c.27.32.23.81-.09,1.08-.14.12-.32.18-.5.18Z"/>
        <path class="cls-1" d="m196.68,174.42l26.83-26.15v-45.57h-67.17v45.75l26.65,25.97c3.81,3.71,9.89,3.71,13.7,0Z"/>
        <path d="m189.83,177.99c-2.66,0-5.31-1.01-7.38-3.03l-39.57-38.57c-.3-.3-.31-.78-.01-1.09.3-.3.78-.31,1.09-.01l39.57,38.57c3.54,3.45,9.09,3.45,12.63,0l39.57-38.57c.3-.3.79-.29,1.09.01.3.3.29.79-.01,1.09l-39.57,38.57c-2.07,2.02-4.73,3.03-7.38,3.03Z"/>
        <path d="m156.33,149.22c-.42,0-.77-.34-.77-.77v-45.75c0-.42.34-.77.77-.77h67.17c.42,0,.77.34.77.77v45.57c0,.42-.34.77-.77.77s-.77-.34-.77-.77v-44.81h-65.64v44.98c0,.42-.34.77-.77.77Z"/>
        <rect class="cls-2" x="164.66" y="113.13" width="17.38" height="17.38"/>
        <path d="m201,128.6h-12.37c-.42,0-.77-.34-.77-.77s.34-.77.77-.77h12.37c.42,0,.77.34.77.77s-.34.77-.77.77Z"/>
        <path d="m213.37,116.57h-24.74c-.42,0-.77-.34-.77-.77s.34-.77.77-.77h24.74c.42,0,.77.34.77.77s-.34.77-.77.77Z"/>
        <path d="m213.37,140.63h-48.72c-.42,0-.77-.34-.77-.77s.34-.77.77-.77h48.72c.42,0,.77.34.77.77s-.34.77-.77.77Z"/>
        <path d="m182.03,152.67h-16.55c-.42,0-.77-.34-.77-.77s.34-.77.77-.77h16.55c.42,0,.77.34.77.77s-.34.77-.77.77Z"/>
        <path d="m206.38,152.67h-16.55c-.42,0-.77-.34-.77-.77s.34-.77.77-.77h16.55c.42,0,.77.34.77.77s-.34.77-.77.77Z"/>
      </g>
      <g>
        <circle cx="150.23" cy="196.96" r="19.15" transform="translate(-95.27 163.92) rotate(-45)"/>
        <path class="cls-1" d="m152.03,206.56c-.42,0-.77-.34-.77-.77v-15.81l-6.47,6.47c-.3.3-.79.3-1.09,0-.3-.3-.3-.79,0-1.09l7.78-7.78c.22-.22.55-.29.84-.17.29.12.47.4.47.71v17.66c0,.42-.34.77-.77.77Z"/>
      </g>
      <path class="cls-1" d="m180.36,37.72h5.56c7.06,0,12.8,5.73,12.8,12.8v36.64c0,7.06-5.73,12.8-12.8,12.8h-5.56v-62.23h0Z" transform="translate(258.37 -120.71) rotate(90)"/>
      <g>
        <g>
          <path class="cls-1" d="m184.04,15.85h-118.9c-5.65,0-10.24,4.58-10.24,10.24v42.31c0,5.65,4.58,10.24,10.24,10.24h89.78l10.15,12.47,5.65-12.47h13.32c5.65,0,10.24-4.58,10.24-10.24V26.08c0-5.65-4.58-10.24-10.24-10.24Z"/>
          <path d="m165.07,91.87c-.23,0-.45-.1-.59-.28l-9.92-12.19h-89.42c-6.07,0-11-4.94-11-11V26.08c0-6.07,4.94-11,11-11h118.9c6.07,0,11,4.94,11,11v42.31c0,6.07-4.94,11-11,11h-12.19l-6.1,12.05c-.12.23-.34.39-.6.42-.03,0-.06,0-.08,0ZM65.14,16.61c-5.22,0-9.47,4.25-9.47,9.47v42.31c0,5.22,4.25,9.47,9.47,9.47h89.78c.23,0,.45.1.59.28l9.41,11.55,5.77-11.41c.13-.26.4-.42.68-.42h12.66c5.22,0,9.47-4.25,9.47-9.47V26.08c0-5.22-4.25-9.47-9.47-9.47h-118.9Z"/>
        </g>
        <g>
          <path class="cls-3" d="m68.5,43.97v9.35c0,.66-.23,1.22-.68,1.67-.45.45-1.01.68-1.67.68s-1.19-.23-1.64-.68c-.45-.45-.68-1.01-.68-1.67v-15.36c0-.64.23-1.19.68-1.64.45-.45,1-.68,1.64-.68.39,0,.74.08,1.05.25.31.17.56.37.76.6l8.41,10.79v-9.32c0-.64.23-1.19.68-1.64.45-.45,1-.68,1.64-.68s1.22.23,1.67.68c.45.45.68,1,.68,1.64v15.36c0,.66-.23,1.22-.68,1.67-.45.45-1.01.68-1.67.68-.41,0-.77-.09-1.08-.28-.31-.19-.57-.4-.76-.65l-8.36-10.76Z"/>
          <path class="cls-3" d="m85.83,55.67c-.64,0-1.19-.23-1.64-.68-.45-.45-.68-1-.68-1.64v-15.38c0-.64.23-1.19.68-1.64.45-.45,1-.68,1.64-.68h9.03c.6,0,1.12.21,1.54.63.42.42.63.93.63,1.54s-.21,1.12-.63,1.54c-.42.42-.93.63-1.54.63h-6.68v3.42h5.13c.57,0,1.05.2,1.43.59.38.39.57.86.57,1.42s-.19,1.02-.57,1.42c-.38.39-.86.59-1.43.59h-5.13v3.95h6.68c.6,0,1.12.21,1.54.63.42.42.63.93.63,1.54s-.21,1.12-.63,1.54c-.42.42-.93.63-1.54.63h-9.03Z"/>
          <path class="cls-3" d="m116.6,47.04l2.75-9.77c.14-.5.42-.89.83-1.19.41-.29.87-.44,1.39-.44.39,0,.73.08,1.03.23.29.15.53.34.72.57.19.23.33.49.43.76.1.28.15.54.15.79,0,.27-.04.51-.11.72l-4.83,15.36c-.16.5-.43.89-.8,1.18s-.82.43-1.34.43-.96-.14-1.34-.41c-.37-.28-.65-.66-.83-1.16l-3.77-10.6-3.77,10.6c-.18.5-.45.89-.83,1.16-.37.28-.82.41-1.34.41s-.96-.14-1.34-.43-.64-.68-.8-1.18l-4.83-15.36c-.07-.21-.11-.45-.11-.72,0-.25.05-.51.15-.79.1-.28.24-.53.43-.76.19-.23.43-.42.72-.57.29-.15.64-.23,1.03-.23.52,0,.98.15,1.39.44.41.29.69.69.83,1.19l2.75,9.77,3.47-9.8c.2-.52.48-.91.87-1.19.38-.28.84-.41,1.38-.41s1,.14,1.39.41c.39.28.68.67.85,1.19l3.47,9.8Z"/>
          <path class="cls-3" d="m131.89,46.68c.45-.45,1-.68,1.64-.68s1.19.23,1.66.68c.46.45.69,1,.69,1.64,0,.41.08.8.24,1.16.16.36.37.68.64.95.27.27.58.48.95.64.36.16.75.24,1.16.24s.8-.08,1.16-.24c.36-.16.69-.37.96-.64.28-.27.49-.58.65-.95.16-.36.24-.75.24-1.16v-10.36c0-.64.23-1.19.68-1.64.45-.45,1-.68,1.64-.68s1.19.23,1.66.68c.46.45.69,1,.69,1.64v10.36c0,1.05-.2,2.04-.6,2.98-.4.93-.95,1.75-1.64,2.44-.69.69-1.51,1.25-2.44,1.66-.93.41-1.94.61-3,.61s-2.04-.21-2.98-.61c-.93-.41-1.75-.96-2.44-1.66-.69-.69-1.24-1.51-1.64-2.44-.4-.93-.6-1.93-.6-2.98,0-.64.23-1.19.68-1.64Z"/>
          <path class="cls-3" d="m154.64,55.2c-1.26-.54-2.35-1.28-3.28-2.22-.93-.93-1.67-2.03-2.22-3.3-.54-1.26-.81-2.61-.81-4.03s.27-2.77.81-4.03c.54-1.26,1.28-2.36,2.22-3.3.93-.93,2.03-1.67,3.28-2.22,1.26-.54,2.59-.81,4.02-.81s2.77.27,4.03.81c1.26.54,2.36,1.28,3.3,2.22.93.93,1.67,2.03,2.22,3.3.54,1.26.82,2.61.82,4.03s-.27,2.77-.82,4.03c-.54,1.26-1.28,2.36-2.22,3.3-.93.93-2.03,1.67-3.3,2.22-1.26.54-2.61.81-4.03.81s-2.76-.27-4.02-.81Zm-1.2-7.34c.29.69.7,1.29,1.22,1.8.52.52,1.12.92,1.8,1.22.68.29,1.42.44,2.2.44s1.52-.15,2.22-.44c.69-.29,1.3-.7,1.82-1.22.52-.52.92-1.12,1.22-1.8.29-.69.44-1.42.44-2.2s-.15-1.52-.44-2.2c-.29-.69-.7-1.29-1.22-1.8-.52-.52-1.12-.93-1.82-1.23-.69-.3-1.43-.45-2.22-.45s-1.52.15-2.2.45c-.69.3-1.29.71-1.8,1.23-.52.52-.92,1.12-1.22,1.8-.29.69-.44,1.42-.44,2.2s.15,1.52.44,2.2Z"/>
          <path class="cls-3" d="m173.11,55.67c-.64,0-1.19-.23-1.64-.68-.45-.45-.68-1-.68-1.64v-15.38c0-.64.23-1.19.68-1.64.45-.45,1-.68,1.64-.68h6.36c.77,0,1.5.12,2.19.37.69.25,1.3.61,1.83,1.07.53.46.94,1.03,1.26,1.71s.47,1.44.47,2.3c0,.62-.07,1.16-.21,1.6-.14.44-.32.81-.53,1.11-.21.29-.44.52-.67.68-.23.16-.44.27-.61.32.21.09.48.25.81.49.33.24.65.57.98.99.32.42.6.93.83,1.55.23.61.35,1.33.35,2.15s-.17,1.6-.52,2.3c-.35.69-.81,1.29-1.38,1.79-.57.5-1.24.89-2,1.18-.77.28-1.56.43-2.38.43h-6.76Zm2.35-15.7v3.42h3.5c.46,0,.86-.17,1.2-.51.34-.34.51-.74.51-1.2s-.17-.86-.51-1.2c-.34-.34-.74-.51-1.2-.51h-3.5Zm0,7.42v3.93h3.98c.53,0,.99-.19,1.38-.57.38-.38.57-.84.57-1.38s-.19-1.02-.57-1.4c-.38-.38-.84-.57-1.38-.57h-3.98Z"/>
        </g>
      </g>
      <path class="cls-1" d="m160.61,236.33c0,3.62-2.94,6.56-6.56,6.56s-6.56-2.94-6.56-6.56,2.94-6.56,6.56-6.56,6.56,2.94,6.56,6.56Z"/>
      <path class="cls-2" d="m195.6,236.33c0,3.62-2.94,6.56-6.56,6.56s-6.56-2.94-6.56-6.56,2.94-6.56,6.56-6.56,6.56,2.94,6.56,6.56Z"/>
      <path d="m230.59,236.33c0,3.62-2.94,6.56-6.56,6.56s-6.56-2.94-6.56-6.56,2.94-6.56,6.56-6.56,6.56,2.94,6.56,6.56Z"/>
      <g>
        <path d="m64.53,178.07c-.2,0-.39-.07-.54-.22l-10.64-10.64c-.3-.3-.3-.79,0-1.09s.79-.3,1.09,0l10.64,10.64c.3.3.3.79,0,1.09-.15.15-.35.22-.54.22Z"/>
        <path d="m53.88,178.07c-.2,0-.39-.07-.54-.22-.3-.3-.3-.79,0-1.09l10.64-10.64c.3-.3.79-.3,1.09,0,.3.3.3.79,0,1.09l-10.64,10.64c-.15.15-.35.22-.54.22Z"/>
      </g>
      <path d="m40.91,119.51c-5.69,0-10.32-4.63-10.32-10.32s4.63-10.32,10.32-10.32,10.32,4.63,10.32,10.32-4.63,10.32-10.32,10.32Zm0-19.1c-4.84,0-8.78,3.94-8.78,8.78s3.94,8.78,8.78,8.78,8.78-3.94,8.78-8.78-3.94-8.78-8.78-8.78Z"/>
    </g>
  </g>
</svg>