<svg width="230" height="185" viewBox="0 0 230 185" fill="none" xmlns="http://www.w3.org/2000/svg">
<path d="M216.324 53.783C216.189 53.0018 216.037 52.2258 215.873 51.4498C209.809 23.0735 183.798 3.49634 156.955 0.946981C138.872 -0.771688 118.341 4.98843 105.119 18.467C103.986 19.6206 102.94 20.8523 101.768 21.9798C92.4124 30.9898 79.4115 35.8698 66.9811 37.6041C52.7383 39.591 38.4359 34.9454 24.6515 41.2393C9.33339 48.2312 -0.410139 66.147 0.540243 83.4613C1.27191 96.8148 8.2292 109.637 18.8006 117.119C25.0236 121.522 34.0615 122.358 37.9333 129.897C40.2455 134.396 39.7222 139.826 40.1544 144.917C40.847 153.052 44.8491 160.218 50.7753 165.434C56.0271 170.059 62.4271 173.053 68.9835 175.163C88.7853 181.537 120.726 179.553 120.726 179.553C120.726 179.553 141.345 154.583 145.566 145.719C148.316 139.943 150.089 133.743 152.956 128.014C153.135 127.655 153.328 127.285 153.633 127.037C153.963 126.769 154.388 126.675 154.797 126.587C159.892 125.496 165.008 124.524 170.013 123.04C179.879 120.113 189.515 115.598 197.533 108.809C212.986 95.7263 219.85 74.131 216.321 53.7856L216.324 53.783Z" fill="#9D2E27"/>
<path d="M93.6907 139.412C93.3601 139.284 93.0111 139.188 92.6726 139.105C80.4062 136.014 68.1425 132.92 55.8761 129.829C54.6914 129.529 53.3139 129.269 52.3531 130.024C51.6709 130.561 51.4156 131.464 51.1969 132.305C48.1791 143.964 45.164 155.622 42.1462 167.283C41.8858 168.285 41.6334 169.525 42.1411 170.494C42.6254 171.421 43.4925 171.535 44.4194 171.746C54.5143 174.046 64.6014 176.342 74.7197 178.532C77.3574 179.103 79.9949 179.678 82.6325 180.251C83.2835 180.392 83.9813 180.53 84.5958 180.277C85.5462 179.886 85.9106 178.756 86.1632 177.762C89.1106 166.179 92.0583 154.596 95.0084 143.013C95.2297 142.143 95.4379 141.167 94.9822 140.394C94.6984 139.914 94.2219 139.62 93.6933 139.414L93.6907 139.412Z" fill="#166534" fill-opacity="0.901961"/>
<path d="M84.1038 148.781C82.203 149.114 80.2943 150.338 78.6122 151.255C76.8703 152.205 75.1727 153.242 73.5323 154.359C70.7592 156.25 68.1478 158.374 65.7158 160.687C64.6952 158.898 63.7003 157.096 62.7395 155.276C62.1355 154.132 61.5418 152.981 60.9611 151.825C60.3701 150.648 59.8859 149.299 59.0996 148.242C58.2039 147.039 56.3708 147.888 56.7457 149.357C57.0712 150.638 57.8419 151.872 58.4303 153.052C59.0344 154.26 59.649 155.461 60.2792 156.656C61.5368 159.044 62.8491 161.406 64.2082 163.739C64.6873 164.562 65.8303 164.551 66.4474 163.929C69.0902 161.265 71.9649 158.859 75.0686 156.747C76.584 155.716 78.1462 154.755 79.7476 153.864C80.5938 153.396 81.4505 152.948 82.3175 152.521C83.1611 152.107 84.1532 151.794 84.9005 151.226C85.8378 150.515 85.5462 148.526 84.1064 148.779L84.1038 148.781Z" fill="white"/>
<path d="M218.36 167.65C215.478 162.442 212.038 159.525 212.038 159.525C212.038 159.525 213.525 151.469 212.595 144.495C211.666 137.521 209.192 121.433 204.99 117.434C200.787 113.434 186.932 108.507 186.932 108.507C186.932 108.507 177.447 86.3752 174.473 83.7712C171.497 81.1672 164.618 78.5657 161.084 80.1906C157.551 81.8182 148.625 88.2319 147.696 93.9061C146.766 99.5804 145.928 103.02 147.324 107.484C148.542 111.387 151.883 116.34 152.703 117.522C151.518 115.897 144.649 107.416 133.01 111.78L78.2139 120.509C78.2139 120.509 75.7247 123.105 79.1669 125.803C82.6065 128.501 87.2567 131.105 87.2567 131.105C87.2567 131.105 82.484 132.389 83.4448 135.475C84.4056 138.563 96.4638 138.823 96.4638 138.823C96.4638 138.823 88.6915 150.82 86.9053 156.492C85.1191 162.163 82.7027 172.858 93.5813 176.113C104.46 179.368 115.081 166.348 117.349 164.116C119.617 161.885 125.387 155.286 125.387 155.286C125.387 155.286 127.704 155.882 127.613 157.908C127.519 159.934 120.731 179.556 120.731 179.556H190.19C190.19 179.556 191.494 183.808 196.095 181.264C196.095 181.264 196.855 182.811 199.394 183.183C201.933 183.556 203.469 181.264 203.469 181.264C203.469 181.264 204.414 183.451 206.739 183.222C209.064 182.996 213.889 175.835 213.889 175.835L219.014 181.261C219.014 181.261 221.245 172.858 218.363 167.65H218.36Z" fill="white"/>
<path d="M123.332 148.724C121.452 148.055 119.651 147.182 117.968 146.107C117.211 145.622 116.51 145.115 115.758 144.516C115.56 144.357 115.365 144.195 115.172 144.031C114.857 144.854 114.477 145.654 114.089 146.445C114.886 147.112 115.724 147.719 116.594 148.286C118.33 149.422 120.2 150.341 122.153 151.039C122.681 151.226 123.304 151.232 123.702 150.758C123.944 150.471 124.048 150.177 124.041 149.807C124.03 149.398 123.738 148.87 123.332 148.724Z" fill="black"/>
<path d="M125.382 155.286C124.889 154.836 123.952 154.802 123.515 155.369C120.143 159.744 116.357 163.801 112.206 167.447C108.504 170.699 104.129 174.345 99.1614 175.017C96.745 175.342 94.2976 174.999 92.1703 173.967C91.0272 173.413 90.2357 172.863 89.314 171.965C88.5433 171.212 87.9391 170.408 87.3767 169.374C86.9262 168.546 86.4836 167.283 86.343 166.371C86.1426 165.064 86.2024 163.788 86.4549 162.502C86.9835 159.812 88.21 157.354 89.4129 154.888C90.845 151.958 92.3422 149.057 93.9045 146.195C94.7012 144.737 95.5215 143.297 96.3208 141.841C96.6255 141.287 96.9379 140.74 97.2347 140.188C97.2868 140.091 97.3363 139.995 97.3857 139.901C97.9117 138.886 97.1773 137.672 96.0343 137.657C96.0265 137.657 96.0187 137.657 96.0109 137.657C95.1048 137.646 94.1988 137.636 93.2927 137.623C91.6158 137.602 89.9153 137.683 88.2905 137.417C87.4886 137.287 86.8535 137.115 86.1765 136.753C85.6115 136.451 85.1947 136.099 84.8588 135.532C84.8224 135.469 84.7808 135.399 84.747 135.331C84.747 135.318 84.7053 135.209 84.7027 135.206C84.6741 135.123 84.6455 135.037 84.6246 134.951C84.622 134.941 84.609 134.847 84.6038 134.826C84.596 134.709 84.5934 134.514 84.5934 134.508C84.609 134.378 84.6246 134.313 84.6793 134.204C84.9032 133.756 85.3875 133.37 85.9187 133.139C87.4992 132.451 89.3087 132.48 90.9986 132.542C92.9176 132.613 94.8367 132.719 96.7557 132.811C98.6668 132.902 100.594 133.175 102.323 132.165C103.026 131.753 103.63 131.191 104.33 130.772C104.864 130.451 105.549 130.204 106.15 130.105C106.978 129.97 107.731 130.003 108.53 130.204C109.22 130.376 109.962 130.759 110.47 131.175C111.113 131.704 111.524 132.201 111.93 132.938C112.258 133.534 112.482 134.363 112.732 135.086C112.883 135.521 113.313 135.829 113.779 135.803C114.204 135.779 114.69 135.425 114.735 134.975C114.828 134.027 114.649 133.157 114.253 132.295C113.865 131.451 113.365 130.706 112.73 130.027C111.535 128.746 109.939 127.92 108.199 127.712C106.254 127.48 104.283 127.889 102.656 128.998C101.979 129.459 101.323 130.1 100.552 130.365C99.6719 130.667 98.6406 130.503 97.7293 130.459C95.5838 130.352 93.4358 130.238 91.2902 130.139C89.2957 130.048 87.1891 130.027 85.2962 130.761C83.5152 131.451 81.8749 132.998 82.1587 135.079C82.4243 137.021 83.8903 138.526 85.6583 139.253C87.6632 140.076 89.8348 140.086 91.9699 140.117C92.7667 140.128 93.5633 140.138 94.3627 140.149C93.5294 141.508 92.7432 142.893 91.9725 144.287C90.4701 147.005 89.0276 149.755 87.6424 152.534C85.1167 157.598 82.1953 163.34 84.3538 169.061C85.2678 171.481 86.8977 173.658 89.0198 175.15C91.3762 176.806 94.1257 177.67 96.9977 177.772C102.69 177.97 107.645 174.66 111.86 171.194C116.346 167.504 120.474 163.39 124.119 158.864C124.574 158.299 125.02 157.729 125.462 157.151C125.895 156.585 125.936 155.794 125.379 155.283L125.382 155.286Z" fill="black"/>
<path d="M104.572 129.571C103.999 128.748 103.166 128.178 102.343 127.623C101.549 127.087 100.724 126.603 99.906 126.1C98.276 125.1 96.6383 124.108 94.9979 123.126C91.8942 121.267 88.7463 119.139 85.1244 118.47C83.3538 118.142 81.4425 118.145 79.7266 118.744C77.9586 119.361 76.4408 120.767 76.3679 122.738C76.3002 124.566 77.7531 125.938 79.0159 127.048C80.3022 128.178 81.6926 129.188 83.1273 130.121C84.4344 130.969 85.7908 131.743 87.1708 132.469C87.2229 132.399 87.2984 132.339 87.3974 132.3C87.4703 132.272 87.5459 132.243 87.6188 132.217C88.3323 131.558 89.3504 131.313 90.3632 131.209C90.2304 131.144 90.0975 131.079 89.9673 131.014C88.6003 130.332 87.2464 129.618 85.9289 128.842C84.6296 128.076 83.4578 127.313 82.2887 126.42C81.6976 125.967 81.1196 125.491 80.565 124.993C80.0364 124.519 79.5002 124.053 79.1591 123.504C78.8674 123.035 78.8647 122.722 79.0782 122.251C79.2683 121.835 79.8283 121.444 80.3074 121.256C81.6692 120.723 83.1844 120.712 84.6087 120.978C87.8088 121.572 90.6054 123.472 93.3576 125.121C95.024 126.118 96.693 127.116 98.3699 128.095C99.2213 128.592 100.06 129.115 100.927 129.582C101.815 130.061 102.781 130.581 103.791 130.701C104.39 130.772 104.965 130.131 104.569 129.566L104.572 129.571Z" fill="black"/>
<path d="M110.183 128.178C109.798 127.613 109.264 127.113 108.785 126.626C108.355 126.191 107.915 125.769 107.467 125.355C106.551 124.509 105.593 123.707 104.603 122.952C103.585 122.173 102.52 121.462 101.421 120.798C100.315 120.129 99.1012 119.54 97.7941 119.478C97.3072 119.454 96.9843 120.126 97.2733 120.501C98.0441 121.512 99.1353 122.212 100.172 122.907C101.078 123.514 102.02 124.217 102.916 124.915C103.859 125.649 104.767 126.423 105.64 127.238C106.067 127.636 106.486 128.043 106.894 128.459C107.334 128.907 107.743 129.425 108.222 129.829C108.715 130.24 109.428 130.285 109.923 129.855C110.394 129.444 110.553 128.72 110.186 128.175L110.183 128.178Z" fill="black"/>
<path d="M112.175 124.074C111.157 123.097 110.087 122.165 108.972 121.298C108.288 121.348 107.611 121.46 106.926 121.522C106.553 121.556 106.176 121.545 105.798 121.535C106.254 121.988 106.712 122.439 107.189 122.874C108.293 123.884 109.376 124.918 110.446 125.967C110.941 126.451 111.803 126.384 112.258 125.886C112.735 125.363 112.678 124.556 112.178 124.074H112.175Z" fill="black"/>
<path d="M129.579 121.801C128.983 120.639 127.834 119.788 126.683 119.23C124.267 118.061 121.507 118.014 118.945 118.686C116.365 119.363 114.097 120.824 112.178 122.65C111.219 123.561 110.36 124.574 109.566 125.629C108.832 126.602 108.095 127.647 107.535 128.743C108.262 128.988 109.045 129.24 109.621 129.74C109.847 129.438 110.071 129.134 110.3 128.832C111.053 127.834 111.8 126.832 112.631 125.897C113.422 125.004 114.3 124.139 115.19 123.457C116.104 122.756 117.122 122.139 118.088 121.749C120.234 120.876 122.434 120.592 124.621 121.256C124.941 121.353 125.408 121.551 125.858 121.801C125.983 121.871 126.105 121.944 126.228 122.019C126.269 122.045 126.295 122.061 126.316 122.071C126.334 122.087 126.358 122.108 126.394 122.139C126.504 122.23 126.613 122.316 126.717 122.413C126.756 122.449 127.082 122.798 126.97 122.66C127.314 123.087 127.423 123.272 127.394 123.767C127.407 123.53 127.259 124.118 127.324 124.009C127.28 124.108 127.228 124.204 127.176 124.301C127.163 124.319 127.155 124.337 127.144 124.35C127.095 124.413 127.045 124.475 126.993 124.532C126.337 125.277 125.506 125.579 124.415 125.936C123.095 126.368 121.796 126.811 120.723 127.73C118.919 129.277 118.343 131.691 117.807 133.904C116.513 139.245 113.792 144.076 111.225 148.935L106.527 157.825C105.744 159.307 104.963 160.788 104.179 162.27C103.348 163.846 102.421 165.379 101.911 167.093C101.593 168.155 103.161 168.913 103.843 168.077C104.877 166.809 105.564 165.33 106.327 163.887C107.053 162.515 107.777 161.145 108.504 159.773C109.985 156.976 111.464 154.177 112.946 151.38C115.719 146.141 118.796 140.901 120.262 135.107C120.403 134.55 120.531 133.988 120.674 133.43C120.741 133.162 120.815 132.891 120.893 132.626C120.937 132.472 120.984 132.316 121.033 132.162C121.054 132.097 121.075 132.035 121.098 131.969C121.103 131.959 121.109 131.943 121.119 131.917C121.314 131.417 121.536 130.938 121.817 130.483C121.814 130.49 121.924 130.329 121.958 130.287C122.038 130.183 122.124 130.084 122.213 129.988C122.304 129.891 122.398 129.798 122.494 129.707C122.494 129.707 122.536 129.673 122.564 129.647C122.606 129.618 122.705 129.545 122.718 129.535C123.679 128.863 124.921 128.618 126.1 128.175C127.35 127.704 128.535 126.988 129.305 125.876C130.167 124.634 130.266 123.144 129.574 121.798L129.579 121.801Z" fill="black"/>
<path d="M148.227 106.661C147.8 106.119 147.295 106.132 146.665 106.2C146.183 106.252 145.701 106.338 145.233 106.458C144.308 106.697 143.413 107.085 142.59 107.567C141.801 108.028 141.028 108.642 140.434 109.338C140.124 109.7 139.827 110.088 139.653 110.536C139.502 110.921 139.439 111.679 140.01 111.767C140.788 111.89 141.437 111.002 141.952 110.533C142.52 110.02 143.142 109.582 143.809 109.202C144.452 108.835 145.142 108.567 145.858 108.379C146.186 108.293 146.514 108.218 146.85 108.174C147.462 108.09 147.899 108.088 148.269 107.523C148.42 107.294 148.396 106.874 148.227 106.661Z" fill="black"/>
<path d="M158.759 115.369L155.854 122.907C155.854 122.907 152.695 116.978 148.37 114.452C144.045 111.926 139.627 111.489 139.627 111.489C139.627 111.489 143.316 105.997 147.883 107.064C147.883 107.064 148.079 110.757 151.625 113.431C155.171 116.103 158.757 115.369 158.757 115.369H158.759Z" fill="black"/>
<path d="M229.858 130.001C230.408 122.741 226.786 116.832 221.399 116.733C217.535 116.663 214.569 118.413 213.199 119.408C213.744 116.991 214.165 114.551 214.145 112.064C214.121 109.197 213.447 106.265 211.942 103.804C208.984 98.9658 202.545 97.0778 197.35 99.26C195.908 99.8668 194.595 100.692 193.437 101.75C193.122 102.036 192.814 102.341 192.523 102.658C193.309 98.833 194.39 91.3594 192.007 86.9455C189.255 81.8468 183.495 78.9798 178.056 77.735C174.418 76.9043 170.659 76.6778 166.938 76.8626C163.454 77.0371 159.694 77.36 156.442 78.6803C153.895 79.7115 151.586 81.4223 150.198 83.8311C148.771 86.3075 148.329 89.3751 149.185 92.1015C150.284 88.5392 152.297 83.8988 155.999 82.378C160.488 80.5344 163.42 80.162 163.579 80.1438C163.576 82.227 164.053 91.9661 173.296 92.0963C173.296 92.0963 171.604 94.2993 172.671 97.7731C172.82 98.2549 173.424 98.4111 173.786 98.0622C174.367 97.4971 175.023 96.9945 175.749 96.6352C177.418 95.8071 180.235 95.8696 181.566 97.3487C182.053 97.8877 182.277 98.6247 182.321 99.3486C182.503 102.234 180.525 105.546 177.301 105.38C175.866 105.307 174.502 104.541 173.723 104.015C173.216 103.671 172.547 103.674 172.057 104.041C171.25 104.645 170.138 105.913 169.458 108.523C168.292 112.994 168.763 114.58 166.56 116.483C164.358 118.387 161.928 121.837 163.191 127.037C164.454 132.238 170.289 133.495 174.27 132.238C178.249 130.977 181.772 125.532 183.876 122.712C185.979 119.894 188.458 115.822 193.95 116.327C199.441 116.832 206.583 120.67 209.013 130.05C211.442 139.43 211.715 152.744 211.715 152.744C211.715 152.744 211.767 152.768 211.869 152.81C211.976 152.932 212.041 153.093 212.181 153.218C212.34 153.359 212.559 153.468 212.741 153.575C213.166 153.82 213.666 153.961 214.134 154.099C215.051 154.367 216.022 154.489 216.975 154.481C218.855 154.463 220.722 154.007 222.414 153.198C225.825 151.562 228.944 147.922 227.96 143.909C227.593 142.409 226.601 141.052 225.263 140.297C226.635 138.914 229.444 135.456 229.856 130.003L229.858 130.001Z" fill="black"/>
<path d="M131.016 29.7451C131.594 28.266 132.154 26.7791 132.711 25.2896C133.266 23.8105 133.789 22.248 134.333 20.7637C134.604 20.0294 134.906 19.4591 133.065 18.8393C132.745 18.7326 132.435 18.5946 132.12 18.4722C131.461 18.2144 130.803 17.9592 130.144 17.7014C128.855 17.1988 127.564 16.6962 126.275 16.1962C124.986 15.6937 123.694 15.1911 122.405 14.6911C121.778 14.4463 121.15 14.1807 120.497 14.0062C120.057 13.8864 119.611 13.8239 119.156 13.7797C119.072 13.7719 118.989 13.7641 118.906 13.7719C118.138 13.8526 117.755 14.9437 117.461 15.5817C117.2 16.1442 116.945 16.7119 116.711 17.2847C116.188 18.5633 115.669 19.8471 115.18 21.1413C114.482 22.9824 113.839 24.8443 113.225 26.7166C112.907 27.6905 113.321 28.7087 114.178 29.0472L127.381 34.2449C128.277 34.599 129.324 34.073 129.717 33.0757C130.152 31.9663 130.586 30.857 131.021 29.7477L131.016 29.7451Z" fill="black"/>
<path d="M174.955 150.698C174.132 150.143 173.013 150.578 172.713 151.466C172.586 151.758 172.544 152.091 172.63 152.419C172.729 152.799 172.961 153.086 173.255 153.265C173.268 153.276 173.283 153.284 173.299 153.291C173.828 153.591 174.539 153.567 175.052 153.151C175.825 152.521 175.794 151.263 174.955 150.7V150.698Z" fill="black"/>
<path d="M188.711 156.731C187.888 156.177 186.769 156.612 186.469 157.5C186.342 157.791 186.3 158.124 186.386 158.453C186.485 158.833 186.716 159.119 187.011 159.299C187.024 159.309 187.039 159.317 187.055 159.325C187.584 159.624 188.294 159.601 188.807 159.184C189.58 158.554 189.549 157.296 188.711 156.734V156.731Z" fill="black"/>
<path d="M109.491 128.105C109.329 127.537 108.803 127.1 108.402 126.683C108.045 126.311 107.681 125.946 107.314 125.587C106.556 124.847 105.77 124.139 104.95 123.467C104.116 122.788 103.236 122.191 102.351 121.587C101.926 121.298 101.5 121.014 101.062 120.743C100.614 120.462 100.148 120.129 99.651 119.944C99.2526 119.796 98.8203 119.842 98.5677 120.223C98.3308 120.577 98.3724 121.038 98.6875 121.335C99.0546 121.681 99.5181 121.944 99.9268 122.241C100.32 122.527 100.711 122.816 101.096 123.116C101.908 123.743 102.677 124.436 103.45 125.113C104.205 125.774 104.942 126.459 105.653 127.168C105.999 127.514 106.337 127.865 106.671 128.225C107.051 128.636 107.418 129.214 107.941 129.436C108.824 129.811 109.769 129.063 109.498 128.105H109.491Z" fill="black"/>
<path d="M196.663 54.7465C196.488 54.2934 195.999 53.9887 195.514 54.046C192.885 54.3507 190.281 54.9913 187.82 55.9678C186.7 56.4131 185.586 56.9365 184.605 57.6214C184.886 54.2257 184.73 50.7988 184.136 47.4422C183.974 46.5308 182.808 46.0933 182.186 46.8745C179.59 50.1165 176.952 53.4471 175.176 57.223C173.635 54.0825 171.247 51.4472 168.326 49.4525C167.927 49.1791 167.417 49.1218 167.008 49.4187C166.646 49.6791 166.414 50.265 166.628 50.6894C167.93 53.2622 168.672 55.9158 168.948 58.7854C169.094 60.3166 169.107 61.8582 169.005 63.3919C168.979 63.806 168.792 65.095 168.758 66.3606C168.74 66.9907 169.185 67.5376 169.805 67.6496C169.95 67.6756 170.086 67.699 170.237 67.7329C174.958 68.7485 179.595 70.1442 184.105 71.8733C184.703 72.1025 185.261 71.8395 185.56 71.2952C188.557 65.8658 191.643 60.2593 196.277 56.0303C196.644 55.6944 196.85 55.2361 196.66 54.7439L196.663 54.7465ZM192.468 56.8063C189.088 60.6004 186.516 65.0325 184.045 69.4828C181.451 68.4933 178.855 67.5454 176.186 66.759C174.416 66.2356 172.619 65.7851 170.815 65.3893C170.929 64.7382 171.01 64.082 171.065 63.431C171.203 61.7827 171.231 60.1187 171.112 58.4677C171 56.9079 170.724 55.3272 170.279 53.7987C172.057 55.697 173.395 58.0563 174.166 60.4702C174.442 61.3374 175.856 61.3921 176.163 60.5119C177.494 56.6892 179.826 53.3976 182.308 50.2441C182.68 53.7257 182.581 57.2412 181.998 60.7046C181.785 61.9754 183.553 62.3894 184.097 61.3035C185.003 59.5015 187.102 58.5927 188.911 57.9L192.468 56.8063Z" fill="white"/>
<path d="M170.617 95.906C170.198 95.8956 169.927 96.1352 169.578 96.3097C169.274 96.4607 168.92 96.5753 168.586 96.6378C168.019 96.7446 167.435 96.7263 166.876 96.5857C166.37 96.4607 165.894 96.2185 165.483 95.9034C165.225 95.7055 164.982 95.4868 164.764 95.2446C164.555 95.0129 164.376 94.7212 164.126 94.5389C163.589 94.1483 162.704 94.4165 162.767 95.1873C162.834 96.0076 163.509 96.7836 164.113 97.3018C164.368 97.5206 164.642 97.7159 164.931 97.8851C164.826 98.1612 164.712 98.4346 164.579 98.7002C164.373 99.109 164.173 99.4033 164.149 99.885C164.118 100.492 164.845 100.88 165.36 100.713C165.886 100.541 166.162 100.096 166.441 99.6507C166.641 99.3304 166.784 98.9788 166.901 98.6221C167.357 98.7028 167.826 98.7236 168.289 98.6898C168.3 98.7419 168.31 98.7939 168.328 98.8486C168.5 99.3616 168.649 100.013 168.987 100.44C169.269 100.796 169.729 101.041 170.19 100.869C170.646 100.7 170.909 100.299 170.911 99.8147C170.914 99.2601 170.64 98.6715 170.461 98.1559C170.461 98.1507 170.456 98.1455 170.453 98.1377C170.883 97.9476 171.341 97.7055 171.508 97.2628C171.768 96.5779 171.372 95.9269 170.622 95.906H170.617Z" fill="black"/>
<path d="M178.92 99.4397C177.707 98.9397 176.421 98.9424 175.257 99.5804C174.77 99.8486 174.281 100.25 174.054 100.765C173.812 101.309 174.025 102.096 174.692 102.14C174.533 102.13 174.835 102.164 174.913 102.158C175.057 102.151 175.182 102.109 175.312 102.057C175.523 101.968 175.687 101.822 175.866 101.687C176.171 101.463 176.486 101.296 176.864 101.234C177.306 101.158 177.668 101.283 178.082 101.406C178.824 101.622 179.527 101.127 179.506 100.338C179.496 99.9866 179.254 99.5803 178.92 99.4423V99.4397Z" fill="black"/>
<path d="M160.736 83.4249C159.29 81.7713 156.944 81.0448 154.827 81.6047C154.249 81.7583 153.94 82.4536 154.117 83.0004C154.312 83.602 154.932 83.8598 155.512 83.7113C156.869 83.3676 158.358 84.042 159.21 85.0732C160.262 86.3492 160.532 88.1642 160.238 89.7527C159.918 91.487 158.931 93.0807 157.731 94.3514C157.26 94.8514 156.585 95.466 155.843 95.3931C155.419 95.3514 155.033 95.0832 154.645 94.9295C154.117 94.7212 153.575 94.5936 153.008 94.69C151.862 94.8827 151.237 95.9113 151.255 97.018C151.273 98.0544 151.888 99.1403 152.513 99.9371C153.01 100.57 153.896 100.26 153.94 99.4736C153.971 98.9033 153.739 98.4606 153.508 97.9554C153.37 97.656 153.07 97.1117 153.182 96.7732C153.377 96.1795 154.46 96.9867 154.739 97.0935C156.908 97.9216 158.723 96.3592 159.973 94.7316C161.21 93.1197 162.207 91.1797 162.418 89.1355C162.629 87.0757 162.116 85.0055 160.736 83.4249Z" fill="black"/>
<path d="M159.528 92.7187C159.108 92.6327 158.713 92.9088 158.317 93.0025C157.728 93.1405 157.075 93.1171 156.5 92.9192C155.994 92.7447 155.552 92.4348 155.184 92.0468C154.721 91.5573 154.528 90.8412 153.825 90.6433C153.508 90.5547 153.187 90.763 153.034 91.026C152.648 91.6875 153.174 92.5182 153.594 93.0338C154.044 93.591 154.586 94.0572 155.221 94.3957C156.567 95.1118 158.239 95.1561 159.629 94.5441C160.056 94.3566 160.257 94.052 160.28 93.591C160.304 93.1666 159.926 92.802 159.528 92.7213V92.7187Z" fill="black"/>
<path d="M157.609 103.546C157.208 103.377 156.955 103.387 156.544 103.479C156.335 103.523 156.127 103.549 155.914 103.562C155.427 103.588 154.94 103.528 154.474 103.382C153.591 103.109 153.049 102.492 152.349 101.942C151.505 101.276 150.529 102.187 150.972 103.104C151.497 104.2 152.812 104.921 153.916 105.291C154.523 105.494 155.145 105.588 155.786 105.598C156.455 105.609 157.444 105.598 157.877 105.018C158.213 104.567 158.221 103.807 157.609 103.549V103.546Z" fill="black"/>
<path d="M165.175 115.064C165.144 114.525 164.608 113.939 164.022 114.038C160.457 114.642 156.705 114.257 153.536 112.426C150.831 110.866 148.714 108.252 147.969 105.176C147.527 103.343 147.576 101.398 147.826 99.5413C148.071 97.7185 148.485 95.9139 149.068 94.1691C150.159 90.9011 151.966 87.8283 154.492 85.4664C155.794 84.2503 157.325 83.2061 158.957 82.4874C159.83 82.102 160.746 81.7791 161.66 81.5109C162.077 81.3885 162.499 81.2843 162.926 81.1984C163.462 81.0916 163.884 80.9276 164.345 80.6411C164.696 80.4224 164.662 79.8781 164.298 79.6958C163.858 79.4745 163.462 79.3704 162.965 79.3599C162.504 79.3495 162.03 79.4276 161.577 79.5005C160.634 79.649 159.726 79.8703 158.838 80.2219C157.143 80.8937 155.549 81.8155 154.127 82.9587C151.102 85.3961 148.873 88.6668 147.475 92.2786C146.767 94.104 146.235 95.9946 145.894 97.9242C145.522 100.015 145.329 102.19 145.621 104.304C146.131 108.017 148.178 111.338 151.232 113.507C154.963 116.155 159.671 116.97 164.144 116.218C164.725 116.119 165.207 115.699 165.17 115.064H165.175Z" fill="black"/>
<path d="M157.288 122.298C155.939 118.379 152.435 115.431 149.081 113.213C145.592 110.903 141.452 109.444 137.229 109.741C136.093 109.822 134.95 110.028 133.862 110.366C133.542 110.465 133.195 110.575 132.854 110.707C132.854 110.754 132.854 110.801 132.849 110.848C133.05 110.924 133.193 111.119 133.104 111.382C132.925 111.918 132.948 112.486 132.927 113.048C133.367 112.877 133.8 112.666 134.237 112.517C135.076 112.236 135.935 112.046 136.815 111.952C138.658 111.754 140.504 111.931 142.293 112.416C145.915 113.4 149.151 115.616 151.849 118.173C153.278 119.53 154.562 121.087 155.213 122.975C155.671 124.303 157.746 123.631 157.288 122.301V122.298Z" fill="black"/>
<path d="M159.829 114.775C159.309 114.509 158.567 114.71 158.317 115.267C157.694 116.658 157.109 118.064 156.562 119.486C156.281 120.217 155.989 120.954 155.768 121.707C155.57 122.381 155.528 123.642 156.533 123.647C157.335 123.65 157.721 122.722 157.968 122.1C158.22 121.462 158.444 120.811 158.694 120.171C159.205 118.863 159.746 117.569 160.322 116.288C160.569 115.733 160.392 115.061 159.829 114.775Z" fill="black"/>
<path d="M173.502 128.774C172.817 129.05 172.333 129.519 171.784 129.996C171.325 130.391 170.859 130.779 170.38 131.157C169.427 131.907 168.43 132.605 167.367 133.191C165.43 134.256 163.108 134.891 160.931 134.448C159.973 134.253 159.129 133.881 158.205 133.284C158.101 133.217 158.007 133.149 157.796 132.982C157.59 132.821 157.39 132.652 157.197 132.475C157.005 132.298 156.817 132.115 156.635 131.925C156.447 131.727 156.288 131.548 156.195 131.425C154.77 129.561 153.955 127.418 153.526 125.108C153.276 123.761 153.185 122.35 153.109 120.973C153.068 120.212 153.07 119.449 153 118.691C152.924 117.9 152.768 117.132 152.601 116.356C152.45 115.658 151.498 115.863 151.336 116.426C151.136 117.124 150.945 117.816 150.846 118.535C150.742 119.298 150.724 120.069 150.709 120.837C150.677 122.264 150.756 123.691 150.966 125.103C151.354 127.717 152.19 130.326 153.765 132.482C155.239 134.498 157.254 136.058 159.655 136.792C162.212 137.576 165.048 137.107 167.443 136.027C168.852 135.391 170.154 134.581 171.383 133.646C172 133.178 172.596 132.683 173.19 132.183C173.825 131.647 174.492 131.16 174.906 130.428C175.385 129.576 174.439 128.407 173.505 128.787L173.502 128.774Z" fill="black"/>
<path d="M214.811 100.789C213.199 98.0309 210.697 95.7915 207.679 94.7004C204.542 93.5676 201.146 93.5989 198.142 95.1118C196.546 95.9165 195.158 97.1274 193.957 98.4398C192.741 99.7679 191.463 101.354 191.044 103.13C190.898 103.752 191.635 104.218 192.156 103.893C193.429 103.093 194.265 101.835 195.259 100.737C196.236 99.6611 197.155 98.7158 198.319 97.9424C200.61 96.4217 203.232 96.0753 205.888 96.7758C207.002 97.0701 208.401 97.7107 209.299 98.3721C210.463 99.2288 211.392 100.2 212.171 101.343C213.772 103.703 214.592 106.484 214.728 109.33C214.905 113.038 213.952 116.718 212.507 120.105C212.239 120.736 212.421 121.483 213.059 121.808C213.637 122.103 214.493 121.887 214.762 121.256C217.524 114.762 218.527 107.137 214.814 100.791L214.811 100.789Z" fill="black"/>
<path d="M181.858 135.907C181.014 136.269 180.308 137.222 179.889 138.019C179.592 138.586 179.842 139.323 180.407 139.612C181.006 139.917 181.678 139.649 182.001 139.094C182.191 138.766 182.352 138.42 182.53 138.086C182.727 137.717 182.964 137.391 183.05 136.972C183.18 136.336 182.516 135.623 181.858 135.907Z" fill="black"/>
<path d="M191.27 140.844C190.273 141.146 189.586 142.307 189.185 143.206C188.919 143.8 189.093 144.591 189.729 144.88C190.317 145.149 191.117 144.971 191.403 144.336C191.572 143.958 191.762 143.591 191.981 143.24C192.062 143.112 192.145 143.016 192.296 142.789C192.45 142.557 192.546 142.313 192.611 142.042C192.804 141.263 191.994 140.628 191.273 140.844H191.27Z" fill="black"/>
<path d="M181.785 158.757C181.266 158.731 180.839 158.796 180.407 158.427C180.004 158.083 179.897 157.601 179.918 157.091C179.946 156.354 178.876 155.836 178.314 156.315C177.866 156.695 177.353 156.875 176.785 156.791C176.447 156.742 176.249 156.643 175.944 156.526C175.525 156.364 174.814 156.359 174.616 156.872C174.137 158.104 175.681 158.77 176.668 158.851C177.168 158.893 177.676 158.851 178.158 158.713C178.376 159.21 178.707 159.658 179.124 159.997C179.9 160.622 181.209 161.08 182.178 160.653C183.237 160.187 182.878 158.812 181.782 158.757H181.785Z" fill="black"/>
<path d="M213.738 149.609C213.613 148.336 213.507 146.687 212.608 145.698C212.533 145.615 212.431 145.555 212.322 145.518C212.121 145.401 211.89 145.339 211.676 145.378C208.815 145.896 205.925 146.258 203.021 146.451C201.571 146.547 200.115 146.604 198.662 146.617C198.131 146.622 197.603 146.615 197.071 146.609C196.936 147.281 196.681 147.917 196.441 148.557C196.381 148.716 196.269 148.81 196.139 148.849C196.124 148.877 196.106 148.906 196.09 148.935C196.205 148.94 196.319 148.948 196.433 148.953C197.16 148.997 197.889 148.992 198.616 148.989C200.1 148.984 201.584 148.935 203.066 148.844C205.75 148.677 208.424 148.357 211.075 147.904C211.124 148.531 211.231 149.164 211.278 149.752C211.379 150.989 211.411 152.237 211.379 153.479C211.319 155.786 210.97 158.08 210.395 160.314C210.71 160.424 211.036 160.549 211.343 160.702C211.783 160.83 212.215 160.994 212.627 161.192C212.66 161.208 212.689 161.226 212.718 161.247C212.723 161.226 212.731 161.208 212.736 161.187C213.423 158.653 213.793 156.046 213.871 153.422C213.91 152.148 213.863 150.877 213.736 149.612L213.738 149.609Z" fill="black"/>
<path d="M129.644 22.9251C129.477 22.4069 128.821 22.0007 128.282 22.2325C126.405 23.0345 124.53 23.8417 122.658 24.6516C122.621 24.3417 122.587 24.0318 122.551 23.722C122.457 22.8887 122.387 22.0189 122.009 21.2585C121.645 20.5268 120.58 20.8836 120.413 21.5554C120.223 22.3132 120.372 23.1647 120.455 23.9303C120.538 24.7037 120.619 25.4745 120.702 26.2479C120.77 26.8754 121.429 27.4796 122.093 27.1983C124.379 26.2296 126.668 25.261 128.951 24.2844C129.488 24.0553 129.836 23.5136 129.644 22.9225V22.9251Z" fill="white"/>
<path d="M92.7614 82.1593L92.7664 120.999L133.307 120.923L132.414 81.2296L92.7614 82.1593Z" fill="white"/>
<path d="M92.73 41.5987L92.7613 82.1593H52.0639L52.5717 41.5987H92.73Z" fill="white"/>
<path d="M129.157 41.6924C128.566 41.6169 127.957 41.5961 127.373 41.5987C115.966 41.6325 104.556 41.6664 93.149 41.7003L93.5475 82.4431L132.805 80.8885C132.979 80.8807 132.737 49.3691 132.734 46.8198C132.732 44.0126 132.266 42.0882 129.154 41.6898L129.157 41.6924Z" fill="#166534" fill-opacity="0.901961"/>
<path d="M92.7613 82.1593L52.5692 81.2296C52.6369 92.3931 52.5248 103.601 52.7799 114.741C52.819 116.478 53.1159 118.449 54.1782 119.881C55.4723 121.626 57.6075 121.394 59.576 121.374C70.6395 121.251 81.7004 121.124 92.7638 121.001V82.1593H92.7613Z" fill="#166534" fill-opacity="0.901961"/>
<path d="M121.325 93.7316C120.718 93.177 119.851 93.2837 119.289 93.8228C118.351 94.7238 117.528 95.7862 116.672 96.7654C115.807 97.7523 114.94 98.7392 114.076 99.7262C112.68 101.317 111.287 102.908 109.894 104.502C109.243 103.786 108.592 103.072 107.941 102.356C106.98 101.302 106.046 100.023 104.754 99.3616C103.97 98.9606 102.937 99.76 103.27 100.63C103.814 102.052 105.03 103.164 106.022 104.288C107.006 105.4 107.991 106.515 108.975 107.629C109.472 108.192 110.485 108.054 110.949 107.541C112.701 105.588 114.448 103.63 116.195 101.669C117.044 100.718 117.89 99.7678 118.739 98.8147C119.632 97.8148 120.611 96.8435 121.416 95.7706C121.882 95.1483 121.936 94.2941 121.325 93.7343V93.7316Z" fill="#166534" fill-opacity="0.901961"/>
<path d="M80.6668 55.7543C80.0862 55.2257 79.0471 55.2152 78.5263 55.8506C76.0788 58.8479 73.6314 61.8451 71.1838 64.845C71.1318 64.9075 70.7959 65.2721 70.5771 65.5273C69.8168 64.9257 69.1581 64.1419 68.4707 63.4675C67.8094 62.8164 67.1532 62.155 66.4762 61.5196C66.1377 61.2019 65.8069 60.8738 65.4606 60.5665C65.2549 60.3843 65.0441 60.2202 64.8254 60.0588C64.5546 59.8583 64.2968 59.7957 64.013 59.6473C62.9741 59.1031 62.0627 60.3166 62.5626 61.2488C62.5678 61.2566 62.5704 61.2644 62.5756 61.2722C62.888 62.2357 63.815 62.9779 64.4971 63.6888C65.2496 64.47 66.0284 65.2252 66.7991 65.9908C67.5568 66.7433 68.2885 67.6261 69.1972 68.1964C70.3116 68.8969 71.5744 68.7406 72.53 67.8579C73.2642 67.1808 73.8656 66.2955 74.4983 65.5221C75.1857 64.6862 75.8733 63.8476 76.5633 63.0117C77.9641 61.3087 79.3622 59.6004 80.7604 57.8974C81.2785 57.2646 81.2892 56.3298 80.6643 55.7569L80.6668 55.7543Z" fill="#166534" fill-opacity="0.901961"/>
<path d="M80.7944 93.4009C80.1565 92.9739 79.4533 93.1067 78.9013 93.6041C78.4248 94.0337 78.102 94.7004 77.7375 95.229C77.4302 95.6769 77.1151 96.1196 76.7974 96.5596C76.0892 97.544 75.3628 98.5127 74.6155 99.4658C73.449 100.958 72.2356 102.414 70.9831 103.833C70.2463 103.039 69.5093 102.244 68.762 101.46C68.2309 100.903 67.7025 100.346 67.1713 99.7887C66.6401 99.2288 66.036 98.3955 65.3069 98.1091C64.3435 97.7341 63.289 98.4945 63.6015 99.5647C63.8306 100.351 64.6195 101.044 65.1559 101.653C65.6923 102.26 66.2286 102.867 66.765 103.473C67.8377 104.687 68.9288 105.88 70.0171 107.077C70.5535 107.666 71.5847 107.52 72.0847 106.984C73.7589 105.182 75.3602 103.317 76.8808 101.388C77.6307 100.437 78.3598 99.471 79.0706 98.4892C79.4274 97.9997 79.7763 97.5049 80.1226 97.0101C80.5027 96.4633 81.0442 95.8696 81.2681 95.242C81.5102 94.5598 81.4479 93.8358 80.7944 93.3983V93.4009Z" fill="white"/>
<path d="M122.744 56.4209C122.577 56.1918 122.426 56.072 122.189 55.9184C121.752 55.6345 121.187 55.7673 120.768 55.9887C120.2 56.2881 119.768 56.8636 119.336 57.3298C118.927 57.7698 118.523 58.2151 118.125 58.663C117.328 59.5614 116.552 60.478 115.8 61.4129C114.675 62.806 113.602 64.2383 112.571 65.7043C111.839 64.9466 111.105 64.1888 110.36 63.444C109.801 62.8816 109.251 62.3061 108.673 61.7592C108.092 61.2071 107.327 60.4181 106.494 60.3452C105.845 60.2879 105.241 60.6837 105.275 61.3998C105.317 62.3113 106.035 63.0352 106.598 63.694C107.139 64.3268 107.725 64.9257 108.293 65.5377C109.428 66.759 110.589 67.9568 111.745 69.1573C112.493 69.9333 113.586 69.475 114.089 68.7328C115.357 66.8553 116.719 65.0377 118.151 63.28C118.864 62.405 119.596 61.5431 120.348 60.6994C120.747 60.2515 121.15 59.8062 121.559 59.3661C122.002 58.8896 122.53 58.4391 122.814 57.8454C123.025 57.4079 123.038 56.8324 122.744 56.4235V56.4209Z" fill="white"/>
<path d="M93.5111 122.441C92.2639 122.441 91.4723 122.254 91.0922 121.868C90.9099 121.683 90.8238 121.444 90.8265 121.139C90.8915 116.681 90.9281 112.147 90.962 107.765C90.9724 106.369 90.9828 104.976 90.9958 103.58L91.1649 83.6644H90.8056C89.863 83.6644 88.9206 83.667 87.978 83.667C86.5095 83.667 85.041 83.667 83.5725 83.6618C78.3727 83.6462 73.0947 83.5967 67.8897 83.5134C65.6453 83.4769 63.2446 83.4223 60.1096 83.3311L59.3232 83.3077C57.4979 83.2556 55.6102 83.2035 53.725 83.0447C53.5714 83.0317 53.4074 83.0264 53.2355 83.0212C52.6575 83.003 51.9989 82.9796 51.6761 82.6723C51.335 82.3494 51.2177 81.7869 51.2229 81.3677L51.3323 72.553C51.387 68.1808 51.4597 63.7357 51.5327 59.439L51.5744 56.8949C51.5952 55.6085 51.6032 52.7961 51.611 50.0775C51.6188 47.3198 51.6265 44.7131 51.6473 43.9606C51.7359 40.6847 51.8167 40.3201 53.9648 40.1639C54.9699 40.091 55.9618 40.0571 57.0919 40.0571C57.7793 40.0571 58.4484 40.0701 59.1566 40.0805C59.9091 40.0935 60.685 40.1066 61.5338 40.1066L77.1878 40.0597C79.75 40.0519 82.3018 40.0441 84.8535 40.0415L90.6546 40.0311C91.7351 40.0311 92.8236 40.1509 93.4511 41.0128C93.7141 41.3774 93.7585 41.8982 93.8028 42.4033C93.8158 42.5414 93.826 42.6768 93.8417 42.8096C93.9458 43.6846 93.9745 44.5621 93.9927 45.3069C94.0161 46.4006 93.998 47.5151 93.9772 48.5932C93.9668 49.1504 93.9561 49.7051 93.9535 50.2624L93.714 81.0734H94.0761C96.5679 81.0474 98.8487 81.0187 101.046 80.9823C113.063 80.7844 123.028 80.5239 132.414 80.162C132.435 80.162 132.453 80.162 132.474 80.162C133.037 80.162 133.516 80.4771 133.758 81.0031C134.193 81.9458 134.161 83.0655 134.13 84.1462C134.12 84.4795 134.109 84.8232 134.114 85.1566C134.133 86.5341 134.14 87.9116 134.148 89.4402C134.195 99.0231 134.227 109.254 134.24 120.717C134.24 121.303 133.89 121.978 133.216 122.134C132.732 122.249 132.136 122.264 131.615 122.264C131.472 122.264 131.328 122.264 131.188 122.264C131.05 122.264 130.914 122.264 130.784 122.264C130.714 122.264 130.644 122.264 130.576 122.264C130.48 122.264 130.383 122.264 130.287 122.264C129.907 122.264 129.516 122.256 129.139 122.249C128.759 122.241 128.365 122.233 127.977 122.233C127.905 122.233 127.831 122.233 127.759 122.233C126.287 122.246 124.816 122.256 123.348 122.264L107.556 122.361C105.723 122.371 103.856 122.374 102.051 122.376C101.216 122.376 100.38 122.376 99.5415 122.379C98.7031 122.379 95.4769 122.384 95.4769 122.384C95.266 122.384 95.0108 122.397 94.7192 122.41C94.352 122.428 93.9381 122.449 93.5136 122.449L93.5111 122.441ZM131.17 82.9014C125.663 83.102 120.2 83.2634 114.935 83.3858C108.321 83.5368 101.489 83.628 94.0448 83.6592H93.6932L93.6438 89.9037C93.6204 92.8749 93.5943 95.8462 93.5683 98.82C93.5058 105.695 93.4433 112.804 93.4277 119.796V120.173L93.8028 120.152C94.5006 120.116 95.219 120.09 96.0028 120.077C97.4713 120.051 98.9426 120.022 100.411 119.999C106.134 119.9 111.719 119.822 116.427 119.759L124.436 119.652C125.751 119.634 127.066 119.621 128.381 119.605C128.743 119.6 129.11 119.59 129.477 119.579C129.93 119.566 130.401 119.553 130.86 119.553C130.943 119.553 131.029 119.553 131.112 119.553L131.474 119.559L131.464 112.108C131.456 106.557 131.459 101.44 131.469 96.4659L131.487 88.7007C131.49 87.4429 131.498 86.1539 131.513 84.7633V84.5628C131.518 84.1384 131.524 83.6983 131.537 83.2686L131.547 82.8884L131.167 82.9014H131.17ZM55.9853 80.8286C57.0737 80.8286 58.1828 80.8494 59.253 80.8677C59.8597 80.8781 60.4665 80.8911 61.0705 80.8989L64.247 80.9406C66.1295 80.964 68.0147 80.9901 69.8972 81.0135C74.9876 81.076 79.9844 81.1073 84.7467 81.1073C86.7907 81.1073 88.8373 81.1021 90.8318 81.089H91.1832L91.454 49.1713C91.4722 47.1115 91.3968 42.9215 91.3968 42.8799L91.3915 42.5257H91.0375C91.0375 42.5257 90.6911 42.5335 90.3708 42.5335L83.989 42.5466C80.1145 42.5544 76.2402 42.557 72.3657 42.5596L60.8987 42.5674C60.2529 42.5674 59.6071 42.5752 58.9613 42.5804C58.2869 42.5856 57.6099 42.5934 56.9355 42.5934C55.9304 42.5934 55.1052 42.5778 54.3371 42.5466L53.9569 42.5309L53.9673 42.9111C53.9804 43.4215 53.9621 43.9475 53.9465 44.4579C53.9335 44.8303 53.9203 45.2157 53.9203 45.5881C53.9203 46.6089 53.9099 47.6505 53.8969 48.6557C53.8917 49.0619 53.8892 49.4681 53.8839 49.8744L53.8605 52.4081C53.7746 61.6134 53.6888 71.1338 53.5742 80.4979L53.5689 80.8703L53.9412 80.8599C54.5713 80.8417 55.2405 80.8312 55.9799 80.8312L55.9853 80.8286Z" fill="black"/>
<path d="M167.951 166.275C167.511 166.051 167.102 166.137 166.68 166.338C166.081 166.621 165.74 167.468 165.441 168.038C165.183 168.533 164.946 169.038 164.732 169.556C164.269 170.673 163.889 171.835 163.618 173.014C163.097 175.288 162.928 177.712 163.293 180.022C163.405 180.722 163.923 181.303 164.683 181.261C165.381 181.22 165.98 180.582 165.922 179.871C165.737 177.678 165.797 175.697 166.287 173.561C166.529 172.509 166.805 171.642 167.193 170.72C167.409 170.205 167.649 169.699 167.909 169.207C168.234 168.59 168.664 168.069 168.646 167.34C168.635 166.895 168.341 166.476 167.951 166.275Z" fill="black"/>
<path d="M130.521 142.425C130.076 140.636 129.631 138.847 129.186 137.058C129.011 136.362 128.162 135.995 127.514 136.206C126.793 136.441 126.488 137.18 126.663 137.878C127.006 139.263 127.353 140.646 127.696 142.031C125.777 142.945 124.173 144.521 123.254 146.443C122.116 148.825 122.08 151.69 123.161 154.101C123.733 155.38 124.546 156.354 125.496 157.367C125.652 157.531 125.595 157.453 125.689 157.593C125.71 157.627 125.842 157.841 125.832 157.804C125.928 158.028 125.908 158.195 125.863 158.434C125.731 159.182 125.507 159.919 125.314 160.653C124.541 163.624 123.681 166.572 122.744 169.494C122.241 171.056 121.718 172.613 121.166 174.16C120.874 174.975 120.57 175.782 120.276 176.595C119.948 177.499 119.494 178.441 119.541 179.412C119.588 180.358 120.742 180.678 121.372 180.064C121.947 179.498 122.179 178.751 122.478 178.019C122.76 177.329 123.01 176.626 123.262 175.928C123.791 174.475 124.301 173.014 124.793 171.548C125.738 168.723 126.608 165.869 127.399 162.997C127.597 162.278 127.79 161.559 127.978 160.838C128.16 160.143 128.389 159.434 128.48 158.718C128.589 157.854 128.459 157.028 127.983 156.289C127.626 155.731 127.121 155.286 126.676 154.802C126.637 154.757 126.598 154.716 126.559 154.671C126.551 154.661 126.54 154.648 126.525 154.63C126.436 154.518 126.35 154.403 126.269 154.286C126.092 154.033 125.928 153.768 125.782 153.497C125.582 153.122 125.366 152.557 125.223 152.01C124.962 151.013 124.942 149.922 125.189 148.862C125.225 148.703 125.272 148.549 125.314 148.391C125.314 148.391 125.33 148.336 125.343 148.299C125.361 148.253 125.392 148.164 125.397 148.151C125.514 147.857 125.647 147.57 125.798 147.292C125.874 147.154 125.954 147.016 126.038 146.88C126.074 146.823 126.111 146.766 126.147 146.708C126.15 146.703 126.152 146.7 126.155 146.695C126.16 146.687 126.168 146.677 126.176 146.667C126.366 146.411 126.564 146.167 126.78 145.935C127.577 145.076 128.53 144.466 129.665 144.102C130.381 143.873 130.688 143.125 130.516 142.43L130.521 142.425Z" fill="black"/>
<path d="M154.528 92.2473C154.37 91.7604 153.831 91.4921 153.346 91.6458C152.789 91.8203 152.052 91.9349 151.578 92.2786C151.271 92.5025 151.107 92.8853 151.229 93.2577C151.357 93.6483 151.706 93.8176 152.089 93.8436C152.409 93.8644 152.75 93.7343 153.06 93.6535C153.349 93.578 153.638 93.5025 153.927 93.427C154.416 93.2994 154.679 92.7056 154.528 92.2447V92.2473Z" fill="black"/>
<path d="M33.8688 78.7324C33.8818 78.0085 33.1996 77.36 32.4576 77.5501C31.1114 77.8939 30.2989 79.6073 29.6402 80.7375C29.2678 81.3755 28.9269 82.0291 28.6144 82.6983C28.4139 82.4926 28.2133 82.2895 28.0128 82.0838C27.3567 81.4145 26.6798 80.6386 25.7711 80.3417C25.0316 80.0995 24.1489 80.8286 24.3858 81.6203C24.6644 82.5525 25.3675 83.2244 26.0315 83.9144C26.7137 84.6201 27.3958 85.3258 28.0754 86.0315C28.8252 86.8075 30.0099 86.469 30.3771 85.5055C30.8379 84.2998 31.3848 83.1436 32.0461 82.0343C32.645 81.0292 33.8506 79.9276 33.8688 78.7324Z" fill="white"/>
<path d="M43.2139 88.6642C42.7739 87.271 42.3727 85.8648 42.016 84.4482C41.287 81.5682 40.7325 78.649 40.3602 75.7013C40.0868 73.5477 40.4538 69.2979 37.3396 69.1599C36.5246 69.1234 35.6942 69.3474 34.8922 69.4854C34.02 69.6364 33.1477 69.7849 32.278 69.9359C30.5335 70.2354 28.7913 70.5375 27.0468 70.8369C23.5603 71.4385 20.0713 72.04 16.5849 72.6415C15.5772 72.816 14.8482 73.6154 15.0539 74.6596C16.2594 80.826 17.7877 86.9429 19.1703 93.0728C19.462 94.3696 19.5609 96.0258 20.9592 96.617C21.5893 96.8826 22.2117 96.7602 22.8548 96.6404C23.6646 96.4867 24.4744 96.3357 25.2842 96.1821C28.3488 95.604 31.4162 95.0285 34.4808 94.4504C36.0431 94.1561 37.6026 93.8619 39.1648 93.5676C40.3912 93.3358 42.0447 93.328 43.0471 92.5026C44.323 91.4531 43.6253 89.9506 43.2165 88.6616L43.2139 88.6642ZM38.3031 90.8646C37.2616 91.0599 36.2201 91.2552 35.1785 91.4531C32.9237 91.8776 30.6661 92.302 28.4112 92.7265L24.9404 93.3801C24.4196 93.4791 23.8989 93.5754 23.3781 93.6744C23.05 93.7369 22.5945 93.8879 22.1883 93.927C22.0113 93.427 21.9409 92.5364 21.8654 92.1979C21.6831 91.388 21.5008 90.5782 21.3159 89.7683C20.9123 87.9741 20.5061 86.1799 20.1025 84.3857C19.4151 81.3442 18.7773 78.2845 18.0378 75.2534C21.6727 74.6258 25.3101 74.0008 28.945 73.3733C30.9785 73.0217 33.0148 72.6728 35.0484 72.3212C35.5144 72.2405 35.978 72.1598 36.4441 72.0816C36.6446 72.0478 36.858 71.9983 37.0663 71.9853C37.3267 72.7092 37.2669 73.6102 37.345 74.3628C37.7616 78.2793 38.4774 82.1723 39.4799 85.982C39.709 86.8518 39.9513 87.7163 40.2117 88.5783C40.3419 89.0079 40.4747 89.4376 40.6127 89.8673C40.6413 89.9558 40.6908 90.1954 40.7533 90.3646C39.9409 90.4558 39.0895 90.7214 38.3005 90.8698L38.3031 90.8646Z" fill="white"/>
<path d="M158.405 40.2472C157.129 39.1952 155.156 38.7759 153.542 38.7056C151.886 38.6327 150.214 38.9634 148.719 39.6848C147.628 40.2108 146.535 40.9972 145.618 41.9555C144.056 41.6352 142.395 41.8565 140.952 42.5283C139.562 43.1768 138.033 44.3668 137.664 45.9292C137.523 46.5178 138.177 47.062 138.69 46.6193C139.702 45.7444 140.525 44.8199 141.801 44.3069C142.559 44.0049 143.379 43.8512 144.194 43.8746C143.681 44.8069 143.366 45.8173 143.348 46.8667C143.324 48.2755 143.91 49.7025 145.264 50.3014C146.636 50.9082 148.308 50.4368 149.266 49.3119C150.287 48.114 150.365 46.3433 149.719 44.9475C149.31 44.0621 148.62 43.3512 147.803 42.8304C148.18 42.4971 148.589 42.1976 149.027 41.9424C150.258 41.2159 151.667 40.8175 153.101 40.8279C154.752 40.8409 156.031 41.4529 157.528 42.0336C158.66 42.4737 159.233 40.9269 158.408 40.2472H158.405ZM148.029 46.8719C148.006 47.9578 146.503 49.2155 145.701 47.9942C145.105 47.088 145.644 45.6923 146.129 44.8642C146.212 44.7235 146.3 44.5829 146.392 44.4475C147.311 44.9397 148.053 45.7626 148.029 46.8719Z" fill="black"/>
<path d="M104.663 37.0703C104.226 33.4793 103.304 29.4717 99.8359 27.6098C99.7916 27.5864 99.7421 27.5629 99.6978 27.5395C99.3906 26.1463 98.6744 24.8209 97.7058 23.7871C94.8651 20.7534 90.0506 20.8549 86.4678 22.3002C85.1243 22.8418 85.817 24.9954 87.1658 24.4485C89.4259 23.5319 92.1077 23.1282 94.4043 24.1725C95.6385 24.7349 96.6486 25.7375 97.2084 26.9536C94.9458 26.9223 92.6727 28.1358 92.2691 30.5862C91.9905 32.2762 92.9905 33.8725 94.683 34.2475C96.4145 34.6329 98.0209 33.6121 98.9426 32.2059C99.3905 31.5237 99.6613 30.7841 99.7863 30.0237C101.924 31.732 102.554 34.8386 103.213 37.3437C103.426 38.1536 104.767 37.914 104.666 37.0703H104.663ZM94.3547 31.2424C94.2922 30.1592 95.3131 29.3858 96.2557 29.141C96.7348 29.0186 97.2137 28.9978 97.6824 29.0655C97.6824 30.0003 97.3621 30.9664 96.6747 31.62C96.0081 32.2554 94.4302 32.5471 94.3547 31.2424Z" fill="black"/>
<path d="M65.7808 18.493C63.9113 17.4697 62.2135 16.2249 60.6643 14.7614C59.2114 13.3891 58.136 15.6651 57.5163 16.7015C56.6154 18.204 55.2822 19.5998 53.6236 20.2456C52.6003 20.644 52.15 22.0371 53.0665 22.821C55.3006 24.7297 57.1076 26.9926 58.4902 29.5837C59.162 30.8414 60.9378 30.2399 61.2555 29.0681C62.1095 25.9068 63.8408 23.1126 66.2103 20.8601C66.9498 20.157 66.5854 18.9331 65.7808 18.493ZM59.4145 25.2896C58.5917 24.1178 57.6673 23.0189 56.6597 22.0007C58.0944 20.9434 59.128 19.4748 59.4717 17.7274C60.4846 18.6206 61.56 19.4331 62.6926 20.1622C61.3465 21.7012 60.2503 23.4303 59.4145 25.2896Z" fill="#9D2E27"/>
<path d="M172.232 176.566C170.906 175.957 169.266 176.264 168.357 177.433C167.914 178.004 167.688 178.683 167.688 179.358C167.675 179.47 167.664 179.584 167.664 179.702C167.678 181.183 168.92 182.261 170.344 182.368C171.752 182.472 173.333 181.686 173.895 180.35C174.518 178.871 173.619 177.204 172.229 176.564L172.232 176.566Z" fill="#9D2E27"/>
<path d="M186.216 172.21C185.953 172.22 185.685 172.259 185.438 172.301C180.105 173.181 174.405 171.496 170.406 167.858C169.612 167.137 168.883 166.343 168.25 165.476C167.951 165.067 167.667 164.635 167.269 164.322C166.87 164.01 166.321 163.833 165.849 164.012C165.074 164.309 164.91 165.332 164.98 166.161C165.235 169.166 166.995 171.947 169.445 173.704C173.966 176.946 179.996 176.613 185.146 175.381C185.875 175.207 186.62 174.975 187.167 174.462C187.648 174.009 187.922 173.223 187.539 172.686C187.248 172.28 186.742 172.189 186.219 172.21H186.216Z" fill="#166534" fill-opacity="0.901961"/>
<path d="M220.992 173.306C220.612 170.429 219.891 167.554 218.49 164.994C216.006 160.458 211.171 157.374 206.057 156.809C204.458 156.632 202.849 156.643 201.264 156.924C200.657 157.031 200.016 157.171 199.391 157.372C199.404 157.406 199.412 157.44 199.417 157.476C199.477 158.052 199.608 158.622 199.694 159.195C199.709 159.296 199.725 159.398 199.74 159.502C200.183 159.426 200.626 159.341 201.071 159.27C202.334 159.07 203.631 158.992 204.909 159.057C207.268 159.176 209.45 159.872 211.46 161.057C213.256 162.116 214.879 163.653 216.022 165.45C217.368 167.567 218.084 170.048 218.493 172.507C218.816 174.452 218.99 176.522 218.521 178.433C217.509 177.212 216.355 176.105 215.09 175.147C215.097 175.137 215.103 175.124 215.111 175.113C215.35 174.702 215.595 174.277 215.655 173.806C215.67 173.678 215.67 173.546 215.652 173.415C215.603 173.066 215.431 172.738 215.126 172.574C214.735 172.363 214.236 172.478 213.879 172.738C213.522 173.001 213.28 173.387 213.053 173.77C211.791 175.897 210.747 178.16 209.33 180.188C208.643 181.175 207.039 182.824 205.747 181.686C205.115 181.126 205.227 180.121 205.43 179.301C206.344 175.613 208.023 172.139 210.153 168.994C210.684 168.21 211.246 167.437 211.595 166.559C211.718 166.254 211.806 165.887 211.629 165.611C211.465 165.356 211.119 165.267 210.822 165.332C210.525 165.398 210.27 165.582 210.038 165.778C209.038 166.616 208.276 167.697 207.57 168.796C205.789 171.572 204.297 174.559 203.409 177.735C203.198 178.491 203.021 179.264 202.977 180.048C202.675 180.366 202.368 180.673 202.006 180.931C201.297 181.436 200.561 181.746 199.748 181.756C199.102 181.764 198.436 181.543 197.991 181.11C197.808 180.933 197.631 180.634 197.53 180.295C197.41 179.889 197.397 179.444 197.428 179.024C197.569 177.155 198.339 175.246 199.131 173.566C199.954 171.822 200.967 170.166 202.11 168.611C202.763 167.723 203.448 166.864 204.164 166.025C204.932 165.127 205.888 164.278 206.247 163.129C206.427 162.559 205.75 162.028 205.227 162.218C204.11 162.624 203.318 163.684 202.56 164.562C201.839 165.392 201.144 166.246 200.488 167.132C199.128 168.962 197.902 170.905 196.96 172.986C196.491 174.017 196.092 175.085 195.767 176.168C195.431 177.285 195.152 178.441 195.176 179.616C195.178 179.793 195.194 179.967 195.215 180.136C194.921 180.285 194.616 180.412 194.283 180.498C193.931 180.587 193.551 180.631 193.189 180.605C193.054 180.595 192.918 180.569 192.786 180.543C192.697 180.524 192.611 180.501 192.525 180.478C192.382 180.433 192.353 180.425 192.442 180.452C191.806 180.209 191.398 179.889 191.08 179.363C190.786 178.879 190.786 178.144 190.927 177.496C191.289 175.819 192.023 174.165 192.71 172.6C193.075 171.767 193.463 170.939 193.861 170.124C193.962 169.918 194.062 169.712 194.16 169.507C193.145 170.389 191.926 171.02 190.726 171.624C190.088 172.936 189.541 174.28 189.065 175.663C188.83 176.342 188.64 177.038 188.562 177.73C188.357 177.543 188.263 177.329 188.193 176.983C188.003 176.035 188.32 174.941 188.536 174.02C188.645 173.553 188.771 173.087 188.909 172.626C188.06 173.103 187.182 173.538 186.232 173.645C186.13 173.993 186.042 174.348 185.969 174.702C185.688 176.072 185.591 177.584 186.341 178.834C187.013 179.949 188.167 180.793 189.148 180.678C189.869 181.86 191.223 182.696 192.577 182.899C193.744 183.076 195.025 182.876 196.137 182.363C196.85 183.266 197.918 183.873 199.191 183.988C200.475 184.105 201.685 183.79 202.792 183.131C203.021 182.993 203.258 182.837 203.495 182.665C203.594 182.845 203.709 183.019 203.839 183.181C205.375 185.082 208.434 184.506 210.036 183.04C211.025 182.134 211.715 180.957 212.39 179.798C212.876 178.962 213.363 178.129 213.848 177.293C215.4 178.488 216.748 179.899 217.852 181.527C218.363 182.28 219.482 182.23 219.915 181.425C221.24 178.949 221.352 176.053 220.992 173.322V173.306Z" fill="black"/>
<path d="M198.85 151.586C198.467 150.591 198.019 149.622 197.548 148.669C197.543 148.656 197.535 148.646 197.527 148.635C197.811 147.95 198.587 144.219 198.696 143.065C198.91 140.831 199.167 138.19 198.05 136.146C197.058 134.331 194.838 133.462 192.846 133.594C191.692 133.672 190.625 134.047 189.635 134.592C189.593 133.795 189.403 133.019 189.041 132.3C188.206 130.641 186.464 129.829 184.675 129.748C180.65 129.569 178.124 133.128 175.556 135.649C170.156 140.953 162.767 145.865 161.754 154.033C160.822 161.557 166.266 168.145 172.531 171.559C179.032 175.1 187.367 175.624 193.58 171.184C196.381 169.181 198.532 166.413 199.626 163.14C200.886 159.367 200.256 155.229 198.852 151.588L198.85 151.586ZM197.569 160.38C197.467 161.119 197.293 161.843 197.064 162.551C197.077 162.504 196.952 162.861 196.936 162.895C196.871 163.059 196.803 163.221 196.73 163.382C196.577 163.723 196.41 164.059 196.231 164.387C196.061 164.697 195.879 164.999 195.686 165.296C195.676 165.309 195.629 165.382 195.6 165.426C195.569 165.47 195.522 165.536 195.515 165.551C195.397 165.713 195.278 165.871 195.155 166.028C194.689 166.621 194.176 167.181 193.627 167.7C193.497 167.822 193.364 167.942 193.231 168.061C193.168 168.116 193.106 168.171 193.043 168.226C193.028 168.239 193.01 168.254 192.986 168.272C192.687 168.507 192.387 168.741 192.075 168.96C191.468 169.384 190.833 169.767 190.174 170.103C189.684 170.353 188.974 170.652 188.26 170.889C187.581 171.116 186.763 171.322 186.175 171.418C185.31 171.561 184.44 171.634 183.566 171.652C183.154 171.66 182.743 171.658 182.332 171.639C181.941 171.621 181.686 171.6 181.225 171.546C179.572 171.348 177.785 170.902 176.379 170.363C174.754 169.738 173.197 168.931 171.745 167.97C171.659 167.913 171.573 167.856 171.487 167.796C171.539 167.832 171.656 167.918 171.427 167.754C171.27 167.642 171.117 167.53 170.963 167.416C170.638 167.171 170.317 166.916 170.005 166.653C169.396 166.14 168.815 165.595 168.268 165.017C166.271 162.908 164.631 160.064 164.269 157.177C163.855 153.862 164.977 150.82 166.808 148.052C168.732 145.146 171.583 142.651 174.231 140.279C175.622 139.034 177.007 137.784 178.298 136.438C179.462 135.224 180.548 133.909 181.949 133.024C182.894 132.425 184.162 132.097 185.276 132.29C186.753 132.545 187.263 133.748 187.339 135.126C187.359 135.488 187.357 135.855 187.339 136.217C187.219 136.321 187.099 136.422 186.982 136.529C186.12 137.297 185.336 138.151 184.638 139.071C184.253 139.581 183.886 140.11 183.548 140.651C183.378 140.92 183.201 141.196 183.05 141.479C182.498 141.297 181.912 141.169 181.373 141.248C180.241 141.412 179.868 142.852 180.912 143.445C181.519 143.792 182.191 143.886 182.774 144.13C183.396 144.391 183.967 144.729 184.534 145.089C185.073 145.43 185.857 145.156 186.185 144.664C186.511 144.177 186.534 143.354 186.003 142.969C185.818 142.836 185.63 142.708 185.44 142.589C185.732 142.094 185.992 141.573 186.266 141.193C186.815 140.425 187.424 139.698 188.086 139.026C189.271 137.823 190.664 136.688 192.314 136.25C193.02 136.063 193.622 136.076 194.319 136.258C194.572 136.326 194.832 136.428 195.179 136.644C195.09 136.592 195.416 136.831 195.449 136.86C195.632 137.024 195.694 137.094 195.757 137.196C196.189 137.894 196.306 138.62 196.345 139.474C196.387 140.417 196.366 141.37 196.293 142.31C196.124 144.469 195.486 146.508 195.197 148.643C195.064 149.625 195.382 150.203 195.772 151.062C196.21 152.028 196.6 153.018 196.913 154.031C197.543 156.075 197.868 158.249 197.571 160.382L197.569 160.38Z" fill="black"/>
<path d="M194.254 83.7842C193.39 83.4457 192.374 83.5264 191.434 83.6801C191.697 83.0629 191.932 82.4301 192.145 81.8052C192.432 80.9693 192.616 79.774 191.562 79.386C190.598 79.0292 189.877 79.899 189.734 80.7661C189.64 81.3442 189.648 81.951 189.609 82.5343C189.565 83.2061 189.435 83.9379 189.476 84.6071C189.5 84.9717 189.63 85.2347 189.825 85.4352C189.841 85.6253 190.023 85.7268 190.2 85.7138C190.703 85.982 191.377 86.0653 191.932 86.2034C192.851 86.4325 194.285 87.0575 195.051 86.1565C195.78 85.2972 195.171 84.1462 194.249 83.7868L194.254 83.7842Z" fill="black"/>
<path d="M182.126 23.985C180.97 23.5709 179.915 22.9902 179.002 22.1647C178.572 21.7767 178.181 21.3627 177.84 20.8966C177.411 20.308 177.129 19.7456 176.34 19.6075C175.695 19.4956 175.231 19.8888 175.033 20.4695C174.932 20.7664 174.945 21.0788 175.038 21.3965C174.77 22.0605 174.536 22.735 174.088 23.3287C173.414 24.2297 172.573 24.9485 171.518 25.3599C170.479 25.7661 170.242 27.2791 171.325 27.8129C173.45 28.8623 175.27 30.318 176.661 32.2476C177.356 33.2137 178.796 32.9429 179.095 31.7945C179.673 29.581 180.861 27.6541 182.509 26.0786C183.082 25.5318 182.925 24.2714 182.129 23.985H182.126ZM177.304 28.8806C176.473 28.016 175.551 27.24 174.554 26.5786C175.145 26.0968 175.671 25.5343 176.103 24.8807C176.33 24.537 176.554 24.1438 176.747 23.7245C176.911 23.8782 177.064 24.0188 177.197 24.1386C177.835 24.7141 178.538 25.2114 179.288 25.6281C178.486 26.6228 177.822 27.714 177.304 28.8806Z" fill="white"/>
<path d="M29.6454 134.803C28.9424 133.407 27.8175 132.126 26.914 130.85C26.1224 129.73 24.1437 127.345 22.9043 129.316C22.6517 129.72 22.5813 130.22 22.3365 130.641C22.011 131.201 21.6908 131.761 21.295 132.277C20.4956 133.313 19.5478 134.152 18.4308 134.831C17.7304 135.256 17.6237 136.352 18.2564 136.888C20.4436 138.743 22.2559 140.92 23.688 143.404C24.2244 144.336 25.5053 144.104 25.9922 143.289C26.8775 141.81 27.7629 140.334 28.6481 138.855C29.4163 137.571 30.4161 136.334 29.648 134.803H29.6454ZM26.3439 137.487C26.0523 137.982 25.7581 138.474 25.4638 138.969L24.7633 140.149C23.727 138.662 22.5396 137.284 21.2195 136.04C22.55 134.964 23.7529 133.584 24.4429 132.032C24.5106 132.144 24.5706 132.245 24.6252 132.321C24.9559 132.785 25.2893 133.248 25.62 133.714C25.9506 134.178 26.284 134.641 26.6147 135.107C26.7839 135.344 27.0337 135.618 27.1639 135.881C27.19 135.935 27.2109 135.967 27.2239 135.982C27.2161 135.993 27.2057 136.016 27.1927 136.055C27.0573 136.534 26.5965 137.063 26.3439 137.493V137.487Z" fill="#9D2E27"/>
</svg>
